<mxfile host="Electron" modified="2023-06-10T20:38:38.923Z" agent="Mozilla/5.0 (Windows NT 10.0; Win64; x64) AppleWebKit/537.36 (KHTML, like Gecko) draw.io/21.2.8 Chrome/112.0.5615.165 Electron/24.2.0 Safari/537.36" etag="rA_rkQy2N36SCEWq1Ksg" version="21.2.8" type="device">
  <diagram name="PÃ¡gina-1" id="976ksHXdWYSij9KBlSpp">
    <mxGraphModel dx="2440" dy="1929" grid="1" gridSize="10" guides="1" tooltips="1" connect="1" arrows="1" fold="1" page="0" pageScale="1" pageWidth="827" pageHeight="1169" background="#FAFAFA" math="0" shadow="1">
      <root>
        <mxCell id="0" />
        <mxCell id="1" style="" parent="0" />
        <mxCell id="OpkzagluIzVOPS0O33I7-3" value="IF/ID" style="text;html=1;align=center;verticalAlign=middle;resizable=0;points=[];autosize=1;strokeColor=none;fillColor=none;fontSize=14;fontFamily=Helvetica;fontColor=default;" parent="1" vertex="1">
          <mxGeometry x="555" y="17" width="50" height="30" as="geometry" />
        </mxCell>
        <mxCell id="OpkzagluIzVOPS0O33I7-150" style="edgeStyle=orthogonalEdgeStyle;rounded=0;orthogonalLoop=1;jettySize=auto;html=1;exitX=1;exitY=0.47;exitDx=0;exitDy=0;exitPerimeter=0;entryX=0;entryY=0.61;entryDx=0;entryDy=0;entryPerimeter=0;strokeColor=#0000FF;" parent="1" source="OpkzagluIzVOPS0O33I7-76" edge="1">
          <mxGeometry relative="1" as="geometry">
            <mxPoint x="1030" y="300.6" as="sourcePoint" />
            <mxPoint x="1670" y="416.79999999999995" as="targetPoint" />
            <Array as="points">
              <mxPoint x="1070" y="294" />
              <mxPoint x="1070" y="417" />
            </Array>
          </mxGeometry>
        </mxCell>
        <mxCell id="53aOUzcJgr9QoAV5sl4--82" style="edgeStyle=orthogonalEdgeStyle;rounded=0;orthogonalLoop=1;jettySize=auto;html=1;exitX=1;exitY=0.1;exitDx=0;exitDy=0;exitPerimeter=0;entryX=0;entryY=0.1;entryDx=0;entryDy=0;entryPerimeter=0;" edge="1" parent="1" source="OpkzagluIzVOPS0O33I7-76" target="OpkzagluIzVOPS0O33I7-165">
          <mxGeometry relative="1" as="geometry" />
        </mxCell>
        <mxCell id="53aOUzcJgr9QoAV5sl4--83" style="edgeStyle=orthogonalEdgeStyle;rounded=0;orthogonalLoop=1;jettySize=auto;html=1;exitX=1;exitY=0.04;exitDx=0;exitDy=0;exitPerimeter=0;entryX=0;entryY=0.04;entryDx=0;entryDy=0;entryPerimeter=0;" edge="1" parent="1" source="OpkzagluIzVOPS0O33I7-76" target="OpkzagluIzVOPS0O33I7-165">
          <mxGeometry relative="1" as="geometry" />
        </mxCell>
        <mxCell id="OpkzagluIzVOPS0O33I7-76" value="" style="whiteSpace=wrap;html=1;points=[[0,0,0,0,0],[0,0.02,0,0,0],[0,0.04,0,0,0],[0,0.06,0,0,0],[0,0.08,0,0,0],[0,0.1,0,0,0],[0,0.12,0,0,0],[0,0.13,0,0,0],[0,0.14,0,0,0],[0,0.16,0,0,0],[0,0.18,0,0,0],[0,0.2,0,0,0],[0,0.22,0,0,0],[0,0.24,0,0,0],[0,0.25,0,0,0],[0,0.27,0,0,0],[0,0.29,0,0,0],[0,0.31,0,0,0],[0,0.33,0,0,0],[0,0.35,0,0,0],[0,0.37,0,0,0],[0,0.39,0,0,0],[0,0.41,0,0,0],[0,0.43,0,0,0],[0,0.45,0,0,0],[0,0.47,0,0,0],[0,0.49,0,0,0],[0,0.5,0,0,0],[0,0.51,0,0,0],[0,0.53,0,0,0],[0,0.55,0,0,0],[0,0.57,0,0,0],[0,0.59,0,0,0],[0,0.61,0,0,0],[0,0.63,0,0,0],[0,0.65,0,0,0],[0,0.67,0,0,0],[0,0.69,0,0,0],[0,0.71,0,0,0],[0,0.73,0,0,0],[0,0.75,0,0,0],[0,0.76,0,0,0],[0,0.78,0,0,0],[0,0.8,0,0,0],[0,0.82,0,0,0],[0,0.84,0,0,0],[0,0.86,0,0,0],[0,0.88,0,0,0],[0,0.9,0,0,0],[0,0.92,0,0,0],[0,0.94,0,0,0],[0,0.96,0,0,0],[0,0.98,0,0,0],[0,1,0,0,0],[0.25,0,0,0,0],[0.25,1,0,0,0],[0.5,0,0,0,0],[0.5,1,0,0,0],[0.75,0,0,0,0],[0.75,1,0,0,0],[1,0,0,0,0],[1,0.02,0,0,0],[1,0.04,0,0,0],[1,0.06,0,0,0],[1,0.08,0,0,0],[1,0.1,0,0,0],[1,0.12,0,0,0],[1,0.14,0,0,0],[1,0.16,0,0,0],[1,0.18,0,0,0],[1,0.2,0,0,0],[1,0.22,0,0,0],[1,0.24,0,0,0],[1,0.25,0,0,0],[1,0.27,0,0,0],[1,0.29,0,0,0],[1,0.31,0,0,0],[1,0.33,0,0,0],[1,0.35,0,0,0],[1,0.37,0,0,0],[1,0.39,0,0,0],[1,0.41,0,0,0],[1,0.43,0,0,0],[1,0.45,0,0,0],[1,0.47,0,0,0],[1,0.49,0,0,0],[1,0.5,0,0,0],[1,0.51,0,0,0],[1,0.53,0,0,0],[1,0.55,0,0,0],[1,0.57,0,0,0],[1,0.59,0,0,0],[1,0.61,0,0,0],[1,0.63,0,0,0],[1,0.65,0,0,0],[1,0.67,0,0,0],[1,0.69,0,0,0],[1,0.71,0,0,0],[1,0.73,0,0,0],[1,0.75,0,0,0],[1,0.76,0,0,0],[1,0.78,0,0,0],[1,0.8,0,0,0],[1,0.82,0,0,0],[1,0.84,0,0,0],[1,0.86,0,0,0],[1,0.88,0,0,0],[1,0.9,0,0,0],[1,0.92,0,0,0],[1,0.94,0,0,0],[1,0.96,0,0,0],[1,0.98,0,0,0],[1,1,0,0,0]];" parent="1" vertex="1">
          <mxGeometry x="990" y="-120" width="40" height="880" as="geometry" />
        </mxCell>
        <mxCell id="OpkzagluIzVOPS0O33I7-124" style="edgeStyle=orthogonalEdgeStyle;rounded=0;orthogonalLoop=1;jettySize=auto;html=1;exitX=1;exitY=0.41;exitDx=0;exitDy=0;exitPerimeter=0;entryX=0;entryY=0.9;entryDx=0;entryDy=0;entryPerimeter=0;" parent="1" source="OpkzagluIzVOPS0O33I7-114" target="OpkzagluIzVOPS0O33I7-76" edge="1">
          <mxGeometry relative="1" as="geometry">
            <mxPoint x="920" y="660" as="targetPoint" />
            <Array as="points">
              <mxPoint x="680" y="286" />
              <mxPoint x="680" y="672" />
            </Array>
          </mxGeometry>
        </mxCell>
        <mxCell id="53aOUzcJgr9QoAV5sl4--32" style="edgeStyle=orthogonalEdgeStyle;rounded=0;orthogonalLoop=1;jettySize=auto;html=1;exitX=1;exitY=0.2;exitDx=0;exitDy=0;exitPerimeter=0;entryX=0;entryY=0.2;entryDx=0;entryDy=0;entryPerimeter=0;" edge="1" parent="1" source="OpkzagluIzVOPS0O33I7-114" target="OpkzagluIzVOPS0O33I7-76">
          <mxGeometry relative="1" as="geometry" />
        </mxCell>
        <mxCell id="53aOUzcJgr9QoAV5sl4--50" value="if_pc_plus_4" style="edgeLabel;html=1;align=center;verticalAlign=middle;resizable=0;points=[];fontColor=#190033;labelBackgroundColor=none;" vertex="1" connectable="0" parent="53aOUzcJgr9QoAV5sl4--32">
          <mxGeometry x="-0.8078" y="-3" relative="1" as="geometry">
            <mxPoint x="133" y="-12" as="offset" />
          </mxGeometry>
        </mxCell>
        <mxCell id="OpkzagluIzVOPS0O33I7-114" value="" style="whiteSpace=wrap;html=1;points=[[0,0,0,0,0],[0,0.02,0,0,0],[0,0.04,0,0,0],[0,0.06,0,0,0],[0,0.08,0,0,0],[0,0.1,0,0,0],[0,0.12,0,0,0],[0,0.13,0,0,0],[0,0.14,0,0,0],[0,0.16,0,0,0],[0,0.18,0,0,0],[0,0.2,0,0,0],[0,0.22,0,0,0],[0,0.24,0,0,0],[0,0.25,0,0,0],[0,0.27,0,0,0],[0,0.29,0,0,0],[0,0.31,0,0,0],[0,0.33,0,0,0],[0,0.35,0,0,0],[0,0.37,0,0,0],[0,0.39,0,0,0],[0,0.41,0,0,0],[0,0.43,0,0,0],[0,0.45,0,0,0],[0,0.47,0,0,0],[0,0.49,0,0,0],[0,0.5,0,0,0],[0,0.51,0,0,0],[0,0.53,0,0,0],[0,0.55,0,0,0],[0,0.57,0,0,0],[0,0.59,0,0,0],[0,0.61,0,0,0],[0,0.63,0,0,0],[0,0.65,0,0,0],[0,0.67,0,0,0],[0,0.69,0,0,0],[0,0.71,0,0,0],[0,0.73,0,0,0],[0,0.75,0,0,0],[0,0.76,0,0,0],[0,0.78,0,0,0],[0,0.8,0,0,0],[0,0.82,0,0,0],[0,0.84,0,0,0],[0,0.86,0,0,0],[0,0.88,0,0,0],[0,0.9,0,0,0],[0,0.92,0,0,0],[0,0.94,0,0,0],[0,0.96,0,0,0],[0,0.98,0,0,0],[0,1,0,0,0],[0.25,0,0,0,0],[0.25,1,0,0,0],[0.5,0,0,0,0],[0.5,1,0,0,0],[0.75,0,0,0,0],[0.75,1,0,0,0],[1,0,0,0,0],[1,0.02,0,0,0],[1,0.04,0,0,0],[1,0.06,0,0,0],[1,0.08,0,0,0],[1,0.1,0,0,0],[1,0.12,0,0,0],[1,0.14,0,0,0],[1,0.16,0,0,0],[1,0.18,0,0,0],[1,0.2,0,0,0],[1,0.22,0,0,0],[1,0.24,0,0,0],[1,0.25,0,0,0],[1,0.27,0,0,0],[1,0.29,0,0,0],[1,0.31,0,0,0],[1,0.33,0,0,0],[1,0.35,0,0,0],[1,0.37,0,0,0],[1,0.39,0,0,0],[1,0.41,0,0,0],[1,0.43,0,0,0],[1,0.45,0,0,0],[1,0.47,0,0,0],[1,0.49,0,0,0],[1,0.5,0,0,0],[1,0.51,0,0,0],[1,0.53,0,0,0],[1,0.55,0,0,0],[1,0.57,0,0,0],[1,0.59,0,0,0],[1,0.61,0,0,0],[1,0.63,0,0,0],[1,0.65,0,0,0],[1,0.67,0,0,0],[1,0.69,0,0,0],[1,0.71,0,0,0],[1,0.73,0,0,0],[1,0.75,0,0,0],[1,0.76,0,0,0],[1,0.78,0,0,0],[1,0.8,0,0,0],[1,0.82,0,0,0],[1,0.84,0,0,0],[1,0.86,0,0,0],[1,0.88,0,0,0],[1,0.9,0,0,0],[1,0.92,0,0,0],[1,0.94,0,0,0],[1,0.96,0,0,0],[1,0.98,0,0,0],[1,1,0,0,0]];" parent="1" vertex="1">
          <mxGeometry x="560" y="-120" width="40" height="880" as="geometry" />
        </mxCell>
        <mxCell id="OpkzagluIzVOPS0O33I7-115" value="ID/EX" style="text;html=1;align=center;verticalAlign=middle;resizable=0;points=[];autosize=1;strokeColor=none;fillColor=none;fontSize=14;" parent="1" vertex="1">
          <mxGeometry x="980" y="-150" width="60" height="30" as="geometry" />
        </mxCell>
        <mxCell id="OpkzagluIzVOPS0O33I7-155" style="edgeStyle=orthogonalEdgeStyle;rounded=0;orthogonalLoop=1;jettySize=auto;html=1;exitX=1;exitY=0.41;exitDx=0;exitDy=0;exitPerimeter=0;entryX=0;entryY=0.75;entryDx=0;entryDy=0;entryPerimeter=0;endArrow=none;endFill=0;" parent="1" target="OpkzagluIzVOPS0O33I7-172" edge="1">
          <mxGeometry relative="1" as="geometry">
            <mxPoint x="1710" y="240.79999999999995" as="sourcePoint" />
            <mxPoint x="1860" y="241" as="targetPoint" />
          </mxGeometry>
        </mxCell>
        <mxCell id="OpkzagluIzVOPS0O33I7-158" style="edgeStyle=orthogonalEdgeStyle;rounded=0;orthogonalLoop=1;jettySize=auto;html=1;exitX=1;exitY=0.1;exitDx=0;exitDy=0;exitPerimeter=0;entryX=0;entryY=0.25;entryDx=0;entryDy=0;entryPerimeter=0;endArrow=none;endFill=0;" parent="1" target="OpkzagluIzVOPS0O33I7-172" edge="1" source="OpkzagluIzVOPS0O33I7-165">
          <mxGeometry relative="1" as="geometry">
            <mxPoint x="1710" y="-67.20000000000005" as="sourcePoint" />
            <mxPoint x="1860" y="211" as="targetPoint" />
            <Array as="points">
              <mxPoint x="1770" y="-32" />
              <mxPoint x="1770" y="211" />
            </Array>
          </mxGeometry>
        </mxCell>
        <mxCell id="OpkzagluIzVOPS0O33I7-170" style="edgeStyle=orthogonalEdgeStyle;rounded=0;orthogonalLoop=1;jettySize=auto;html=1;exitX=1;exitY=0.1;exitDx=0;exitDy=0;exitPerimeter=0;entryX=0.5;entryY=1;entryDx=0;entryDy=0;strokeColor=#00FF00;" parent="1" source="OpkzagluIzVOPS0O33I7-165" target="OpkzagluIzVOPS0O33I7-159" edge="1">
          <mxGeometry relative="1" as="geometry">
            <Array as="points">
              <mxPoint x="2220" y="-32" />
              <mxPoint x="2220" y="520" />
              <mxPoint x="1990" y="520" />
            </Array>
          </mxGeometry>
        </mxCell>
        <mxCell id="OpkzagluIzVOPS0O33I7-171" style="edgeStyle=orthogonalEdgeStyle;rounded=0;orthogonalLoop=1;jettySize=auto;html=1;exitX=1;exitY=0.1;exitDx=0;exitDy=0;exitPerimeter=0;entryX=0.5;entryY=0;entryDx=0;entryDy=0;strokeColor=#0000FF;" parent="1" source="OpkzagluIzVOPS0O33I7-165" target="OpkzagluIzVOPS0O33I7-159" edge="1">
          <mxGeometry relative="1" as="geometry">
            <Array as="points">
              <mxPoint x="1990" y="-32" />
            </Array>
          </mxGeometry>
        </mxCell>
        <mxCell id="OpkzagluIzVOPS0O33I7-173" style="edgeStyle=orthogonalEdgeStyle;rounded=0;orthogonalLoop=1;jettySize=auto;html=1;exitX=1;exitY=0.47;exitDx=0;exitDy=0;exitPerimeter=0;entryX=0;entryY=0.69;entryDx=0;entryDy=0;entryPerimeter=0;strokeColor=#FF0000;" parent="1" source="OpkzagluIzVOPS0O33I7-165" target="OpkzagluIzVOPS0O33I7-166" edge="1">
          <mxGeometry relative="1" as="geometry">
            <Array as="points">
              <mxPoint x="1810" y="294" />
              <mxPoint x="1810" y="478" />
            </Array>
          </mxGeometry>
        </mxCell>
        <mxCell id="OpkzagluIzVOPS0O33I7-195" style="edgeStyle=orthogonalEdgeStyle;rounded=0;orthogonalLoop=1;jettySize=auto;html=1;exitX=1;exitY=0.86;exitDx=0;exitDy=0;exitPerimeter=0;entryX=0;entryY=0.871;entryDx=0;entryDy=0;entryPerimeter=0;" parent="1" source="OpkzagluIzVOPS0O33I7-165" target="OpkzagluIzVOPS0O33I7-166" edge="1">
          <mxGeometry relative="1" as="geometry" />
        </mxCell>
        <mxCell id="53aOUzcJgr9QoAV5sl4--84" style="edgeStyle=orthogonalEdgeStyle;rounded=0;orthogonalLoop=1;jettySize=auto;html=1;exitX=1;exitY=0.04;exitDx=0;exitDy=0;exitPerimeter=0;entryX=0;entryY=0.04;entryDx=0;entryDy=0;entryPerimeter=0;" edge="1" parent="1" source="OpkzagluIzVOPS0O33I7-165" target="OpkzagluIzVOPS0O33I7-166">
          <mxGeometry relative="1" as="geometry" />
        </mxCell>
        <mxCell id="OpkzagluIzVOPS0O33I7-165" value="" style="whiteSpace=wrap;html=1;points=[[0,0,0,0,0],[0,0.02,0,0,0],[0,0.04,0,0,0],[0,0.06,0,0,0],[0,0.08,0,0,0],[0,0.1,0,0,0],[0,0.12,0,0,0],[0,0.13,0,0,0],[0,0.14,0,0,0],[0,0.16,0,0,0],[0,0.18,0,0,0],[0,0.2,0,0,0],[0,0.22,0,0,0],[0,0.24,0,0,0],[0,0.25,0,0,0],[0,0.27,0,0,0],[0,0.29,0,0,0],[0,0.31,0,0,0],[0,0.33,0,0,0],[0,0.35,0,0,0],[0,0.37,0,0,0],[0,0.39,0,0,0],[0,0.41,0,0,0],[0,0.43,0,0,0],[0,0.45,0,0,0],[0,0.47,0,0,0],[0,0.49,0,0,0],[0,0.5,0,0,0],[0,0.51,0,0,0],[0,0.53,0,0,0],[0,0.55,0,0,0],[0,0.57,0,0,0],[0,0.59,0,0,0],[0,0.61,0,0,0],[0,0.63,0,0,0],[0,0.65,0,0,0],[0,0.67,0,0,0],[0,0.69,0,0,0],[0,0.71,0,0,0],[0,0.73,0,0,0],[0,0.75,0,0,0],[0,0.76,0,0,0],[0,0.78,0,0,0],[0,0.8,0,0,0],[0,0.82,0,0,0],[0,0.84,0,0,0],[0,0.86,0,0,0],[0,0.88,0,0,0],[0,0.9,0,0,0],[0,0.92,0,0,0],[0,0.94,0,0,0],[0,0.96,0,0,0],[0,0.98,0,0,0],[0,1,0,0,0],[0.25,0,0,0,0],[0.25,1,0,0,0],[0.5,0,0,0,0],[0.5,1,0,0,0],[0.75,0,0,0,0],[0.75,1,0,0,0],[1,0,0,0,0],[1,0.02,0,0,0],[1,0.04,0,0,0],[1,0.06,0,0,0],[1,0.08,0,0,0],[1,0.1,0,0,0],[1,0.12,0,0,0],[1,0.14,0,0,0],[1,0.16,0,0,0],[1,0.18,0,0,0],[1,0.2,0,0,0],[1,0.22,0,0,0],[1,0.24,0,0,0],[1,0.25,0,0,0],[1,0.27,0,0,0],[1,0.29,0,0,0],[1,0.31,0,0,0],[1,0.33,0,0,0],[1,0.35,0,0,0],[1,0.37,0,0,0],[1,0.39,0,0,0],[1,0.41,0,0,0],[1,0.43,0,0,0],[1,0.45,0,0,0],[1,0.47,0,0,0],[1,0.49,0,0,0],[1,0.5,0,0,0],[1,0.51,0,0,0],[1,0.53,0,0,0],[1,0.55,0,0,0],[1,0.57,0,0,0],[1,0.59,0,0,0],[1,0.61,0,0,0],[1,0.63,0,0,0],[1,0.65,0,0,0],[1,0.67,0,0,0],[1,0.69,0,0,0],[1,0.71,0,0,0],[1,0.73,0,0,0],[1,0.75,0,0,0],[1,0.76,0,0,0],[1,0.78,0,0,0],[1,0.8,0,0,0],[1,0.82,0,0,0],[1,0.84,0,0,0],[1,0.86,0,0,0],[1,0.88,0,0,0],[1,0.9,0,0,0],[1,0.92,0,0,0],[1,0.94,0,0,0],[1,0.96,0,0,0],[1,0.98,0,0,0],[1,1,0,0,0]];" parent="1" vertex="1">
          <mxGeometry x="1670" y="-120" width="40" height="880" as="geometry" />
        </mxCell>
        <mxCell id="OpkzagluIzVOPS0O33I7-166" value="" style="whiteSpace=wrap;html=1;points=[[0,0,0,0,0],[0,0.02,0,0,0],[0,0.04,0,0,0],[0,0.06,0,0,0],[0,0.08,0,0,0],[0,0.1,0,0,0],[0,0.12,0,0,0],[0,0.13,0,0,0],[0,0.14,0,0,0],[0,0.16,0,0,0],[0,0.18,0,0,0],[0,0.2,0,0,0],[0,0.22,0,0,0],[0,0.24,0,0,0],[0,0.25,0,0,0],[0,0.27,0,0,0],[0,0.29,0,0,0],[0,0.31,0,0,0],[0,0.33,0,0,0],[0,0.35,0,0,0],[0,0.37,0,0,0],[0,0.39,0,0,0],[0,0.41,0,0,0],[0,0.43,0,0,0],[0,0.45,0,0,0],[0,0.47,0,0,0],[0,0.49,0,0,0],[0,0.5,0,0,0],[0,0.51,0,0,0],[0,0.53,0,0,0],[0,0.55,0,0,0],[0,0.57,0,0,0],[0,0.59,0,0,0],[0,0.61,0,0,0],[0,0.63,0,0,0],[0,0.65,0,0,0],[0,0.67,0,0,0],[0,0.69,0,0,0],[0,0.71,0,0,0],[0,0.73,0,0,0],[0,0.75,0,0,0],[0,0.76,0,0,0],[0,0.78,0,0,0],[0,0.8,0,0,0],[0,0.82,0,0,0],[0,0.84,0,0,0],[0,0.86,0,0,0],[0,0.88,0,0,0],[0,0.9,0,0,0],[0,0.92,0,0,0],[0,0.94,0,0,0],[0,0.96,0,0,0],[0,0.98,0,0,0],[0,1,0,0,0],[0.25,0,0,0,0],[0.25,1,0,0,0],[0.5,0,0,0,0],[0.5,1,0,0,0],[0.75,0,0,0,0],[0.75,1,0,0,0],[1,0,0,0,0],[1,0.02,0,0,0],[1,0.04,0,0,0],[1,0.06,0,0,0],[1,0.08,0,0,0],[1,0.1,0,0,0],[1,0.12,0,0,0],[1,0.14,0,0,0],[1,0.16,0,0,0],[1,0.18,0,0,0],[1,0.2,0,0,0],[1,0.22,0,0,0],[1,0.24,0,0,0],[1,0.25,0,0,0],[1,0.27,0,0,0],[1,0.29,0,0,0],[1,0.31,0,0,0],[1,0.33,0,0,0],[1,0.35,0,0,0],[1,0.37,0,0,0],[1,0.39,0,0,0],[1,0.41,0,0,0],[1,0.43,0,0,0],[1,0.45,0,0,0],[1,0.47,0,0,0],[1,0.49,0,0,0],[1,0.5,0,0,0],[1,0.51,0,0,0],[1,0.53,0,0,0],[1,0.55,0,0,0],[1,0.57,0,0,0],[1,0.59,0,0,0],[1,0.61,0,0,0],[1,0.63,0,0,0],[1,0.65,0,0,0],[1,0.67,0,0,0],[1,0.69,0,0,0],[1,0.71,0,0,0],[1,0.73,0,0,0],[1,0.75,0,0,0],[1,0.76,0,0,0],[1,0.78,0,0,0],[1,0.8,0,0,0],[1,0.82,0,0,0],[1,0.84,0,0,0],[1,0.86,0,0,0],[1,0.88,0,0,0],[1,0.9,0,0,0],[1,0.92,0,0,0],[1,0.94,0,0,0],[1,0.96,0,0,0],[1,0.98,0,0,0],[1,1,0,0,0]];" parent="1" vertex="1">
          <mxGeometry x="2310" y="-120" width="40" height="871" as="geometry" />
        </mxCell>
        <mxCell id="OpkzagluIzVOPS0O33I7-167" style="edgeStyle=orthogonalEdgeStyle;rounded=0;orthogonalLoop=1;jettySize=auto;html=1;exitX=1;exitY=0.25;exitDx=0;exitDy=0;entryX=0;entryY=0.53;entryDx=0;entryDy=0;entryPerimeter=0;" parent="1" source="OpkzagluIzVOPS0O33I7-159" target="OpkzagluIzVOPS0O33I7-166" edge="1">
          <mxGeometry relative="1" as="geometry" />
        </mxCell>
        <mxCell id="OpkzagluIzVOPS0O33I7-198" value="EX/MEM" style="text;html=1;align=center;verticalAlign=middle;resizable=0;points=[];autosize=1;strokeColor=none;fillColor=none;fontSize=14;" parent="1" vertex="1">
          <mxGeometry x="1650" y="-145" width="80" height="30" as="geometry" />
        </mxCell>
        <mxCell id="OpkzagluIzVOPS0O33I7-202" value="IF/ID" style="text;html=1;align=center;verticalAlign=middle;resizable=0;points=[];autosize=1;strokeColor=none;fillColor=none;fontSize=14;" parent="1" vertex="1">
          <mxGeometry x="555" y="-145" width="50" height="30" as="geometry" />
        </mxCell>
        <mxCell id="OpkzagluIzVOPS0O33I7-203" value="MEM/WB" style="text;html=1;align=center;verticalAlign=middle;resizable=0;points=[];autosize=1;strokeColor=none;fillColor=none;fontSize=14;" parent="1" vertex="1">
          <mxGeometry x="2290" y="-159" width="80" height="30" as="geometry" />
        </mxCell>
        <mxCell id="MI3vTnZKfxx9PkZqP91Z-6" value="IF" style="" parent="0" />
        <mxCell id="MI3vTnZKfxx9PkZqP91Z-62" style="edgeStyle=none;shape=connector;rounded=0;orthogonalLoop=1;jettySize=auto;html=1;entryX=0;entryY=0.41;entryDx=0;entryDy=0;entryPerimeter=0;labelBackgroundColor=default;strokeColor=default;fontFamily=Helvetica;fontSize=11;fontColor=default;endArrow=classic;endFill=1;" parent="MI3vTnZKfxx9PkZqP91Z-6" source="MI3vTnZKfxx9PkZqP91Z-7" edge="1">
          <mxGeometry relative="1" as="geometry">
            <mxPoint x="560" y="285.9999999999998" as="targetPoint" />
          </mxGeometry>
        </mxCell>
        <mxCell id="53aOUzcJgr9QoAV5sl4--48" value="I_DataIn" style="edgeLabel;html=1;align=center;verticalAlign=middle;resizable=0;points=[];fontColor=#190033;labelBackgroundColor=none;" vertex="1" connectable="0" parent="MI3vTnZKfxx9PkZqP91Z-62">
          <mxGeometry x="0.19" relative="1" as="geometry">
            <mxPoint y="-9" as="offset" />
          </mxGeometry>
        </mxCell>
        <mxCell id="MI3vTnZKfxx9PkZqP91Z-7" value="&lt;b&gt;&lt;i&gt;Instruction Memory&lt;/i&gt;&lt;/b&gt;" style="whiteSpace=wrap;html=1;aspect=fixed;" parent="MI3vTnZKfxx9PkZqP91Z-6" vertex="1">
          <mxGeometry x="160" y="205" width="160" height="160" as="geometry" />
        </mxCell>
        <mxCell id="MI3vTnZKfxx9PkZqP91Z-72" style="edgeStyle=orthogonalEdgeStyle;shape=connector;rounded=0;orthogonalLoop=1;jettySize=auto;html=1;entryX=0.25;entryY=1;entryDx=0;entryDy=0;entryPerimeter=0;labelBackgroundColor=default;strokeColor=default;fontFamily=Helvetica;fontSize=11;fontColor=default;endArrow=classic;endFill=1;exitX=1;exitY=0.5;exitDx=0;exitDy=0;" parent="MI3vTnZKfxx9PkZqP91Z-6" source="MI3vTnZKfxx9PkZqP91Z-8" target="MI3vTnZKfxx9PkZqP91Z-29" edge="1">
          <mxGeometry relative="1" as="geometry">
            <Array as="points">
              <mxPoint x="120" y="245" />
              <mxPoint x="120" y="32" />
            </Array>
          </mxGeometry>
        </mxCell>
        <mxCell id="MI3vTnZKfxx9PkZqP91Z-73" style="edgeStyle=none;shape=connector;rounded=0;orthogonalLoop=1;jettySize=auto;html=1;entryX=0;entryY=0.25;entryDx=0;entryDy=0;labelBackgroundColor=default;strokeColor=default;fontFamily=Helvetica;fontSize=11;fontColor=default;endArrow=none;" parent="MI3vTnZKfxx9PkZqP91Z-6" source="MI3vTnZKfxx9PkZqP91Z-8" target="MI3vTnZKfxx9PkZqP91Z-7" edge="1">
          <mxGeometry relative="1" as="geometry" />
        </mxCell>
        <mxCell id="53aOUzcJgr9QoAV5sl4--46" value="pc" style="edgeLabel;html=1;align=center;verticalAlign=middle;resizable=0;points=[];fontColor=#190033;labelBackgroundColor=none;" vertex="1" connectable="0" parent="MI3vTnZKfxx9PkZqP91Z-73">
          <mxGeometry x="-0.35" y="-3" relative="1" as="geometry">
            <mxPoint y="-11" as="offset" />
          </mxGeometry>
        </mxCell>
        <mxCell id="MI3vTnZKfxx9PkZqP91Z-8" value="&lt;b&gt;&lt;i&gt;PC&lt;/i&gt;&lt;/b&gt;" style="whiteSpace=wrap;html=1;" parent="MI3vTnZKfxx9PkZqP91Z-6" vertex="1">
          <mxGeometry x="40" y="205" width="40" height="80" as="geometry" />
        </mxCell>
        <mxCell id="MI3vTnZKfxx9PkZqP91Z-71" style="edgeStyle=orthogonalEdgeStyle;shape=connector;rounded=0;orthogonalLoop=1;jettySize=auto;html=1;entryX=0;entryY=0.25;entryDx=0;entryDy=0;entryPerimeter=0;labelBackgroundColor=default;strokeColor=default;fontFamily=Helvetica;fontSize=11;fontColor=default;endArrow=none;" parent="MI3vTnZKfxx9PkZqP91Z-6" source="MI3vTnZKfxx9PkZqP91Z-29" target="MI3vTnZKfxx9PkZqP91Z-54" edge="1">
          <mxGeometry relative="1" as="geometry" />
        </mxCell>
        <mxCell id="MI3vTnZKfxx9PkZqP91Z-29" value="" style="group;rotation=90;fontFamily=Helvetica;fontSize=11;fontColor=default;connectable=1;points=[[0,1,0,0,0],[0.25,1,0,0,0],[0.5,0,0,0,0],[0.75,1,0,0,0],[1,1,0,0,0]];" parent="MI3vTnZKfxx9PkZqP91Z-6" vertex="1" connectable="0">
          <mxGeometry x="180" y="37.94" width="100" height="37.5" as="geometry" />
        </mxCell>
        <mxCell id="MI3vTnZKfxx9PkZqP91Z-30" value="" style="endArrow=none;html=1;rounded=0;movable=1;resizable=1;rotatable=1;deletable=1;editable=1;locked=0;connectable=1;endFill=0;snapToPoint=1;orthogonalLoop=1;labelBackgroundColor=default;strokeColor=#ff6600;fontFamily=Helvetica;fontSize=11;fontColor=default;shape=connector;fillColor=#0050ef;" parent="MI3vTnZKfxx9PkZqP91Z-29" edge="1">
          <mxGeometry width="50" height="50" relative="1" as="geometry">
            <mxPoint x="68.75" y="31.25" as="sourcePoint" />
            <mxPoint x="68.75" y="31.25" as="targetPoint" />
            <Array as="points">
              <mxPoint x="68.75" y="6.25" />
              <mxPoint x="31.25" y="-31.25" />
              <mxPoint x="31.25" y="6.25" />
              <mxPoint x="43.75" y="18.75" />
              <mxPoint x="31.25" y="31.25" />
              <mxPoint x="31.25" y="68.75" />
            </Array>
          </mxGeometry>
        </mxCell>
        <mxCell id="MI3vTnZKfxx9PkZqP91Z-34" style="edgeStyle=orthogonalEdgeStyle;shape=connector;rounded=0;orthogonalLoop=1;jettySize=auto;html=1;labelBackgroundColor=default;strokeColor=default;fontFamily=Helvetica;fontSize=11;fontColor=default;endArrow=classic;entryX=0;entryY=0.2;entryDx=0;entryDy=0;entryPerimeter=0;strokeWidth=1;endFill=1;exitX=0.5;exitY=0;exitDx=0;exitDy=0;exitPerimeter=0;" parent="MI3vTnZKfxx9PkZqP91Z-6" source="MI3vTnZKfxx9PkZqP91Z-29" edge="1" target="OpkzagluIzVOPS0O33I7-114">
          <mxGeometry relative="1" as="geometry">
            <mxPoint x="280" y="140" as="sourcePoint" />
            <mxPoint x="560" y="112" as="targetPoint" />
          </mxGeometry>
        </mxCell>
        <mxCell id="53aOUzcJgr9QoAV5sl4--44" value="pc_plus_4" style="edgeLabel;html=1;align=center;verticalAlign=middle;resizable=0;points=[];fontColor=#190033;labelBackgroundColor=none;" vertex="1" connectable="0" parent="MI3vTnZKfxx9PkZqP91Z-34">
          <mxGeometry x="-0.833" y="-1" relative="1" as="geometry">
            <mxPoint x="25" y="8" as="offset" />
          </mxGeometry>
        </mxCell>
        <mxCell id="MI3vTnZKfxx9PkZqP91Z-70" style="edgeStyle=orthogonalEdgeStyle;shape=connector;rounded=0;orthogonalLoop=1;jettySize=auto;html=1;exitX=1;exitY=0.5;exitDx=0;exitDy=0;exitPerimeter=0;labelBackgroundColor=default;strokeColor=default;fontFamily=Helvetica;fontSize=11;fontColor=default;endArrow=classic;entryX=0;entryY=0.5;entryDx=0;entryDy=0;endFill=1;" parent="MI3vTnZKfxx9PkZqP91Z-6" source="MI3vTnZKfxx9PkZqP91Z-54" target="MI3vTnZKfxx9PkZqP91Z-8" edge="1">
          <mxGeometry relative="1" as="geometry">
            <mxPoint x="470" y="-75.06" as="targetPoint" />
            <Array as="points">
              <mxPoint x="440" y="-75" />
              <mxPoint x="440" y="-175" />
              <mxPoint x="20" y="-175" />
              <mxPoint x="20" y="245" />
            </Array>
          </mxGeometry>
        </mxCell>
        <mxCell id="53aOUzcJgr9QoAV5sl4--43" value="next_pc" style="edgeLabel;html=1;align=center;verticalAlign=middle;resizable=0;points=[];fontSize=10;fontColor=#190033;labelBackgroundColor=none;" vertex="1" connectable="0" parent="MI3vTnZKfxx9PkZqP91Z-70">
          <mxGeometry x="-0.417" y="-2" relative="1" as="geometry">
            <mxPoint y="-7" as="offset" />
          </mxGeometry>
        </mxCell>
        <mxCell id="53aOUzcJgr9QoAV5sl4--47" value="next_pc" style="edgeLabel;html=1;align=center;verticalAlign=middle;resizable=0;points=[];labelBackgroundColor=none;" vertex="1" connectable="0" parent="MI3vTnZKfxx9PkZqP91Z-70">
          <mxGeometry x="0.7699" relative="1" as="geometry">
            <mxPoint x="22" as="offset" />
          </mxGeometry>
        </mxCell>
        <mxCell id="MI3vTnZKfxx9PkZqP91Z-54" value="" style="group;connectable=1;points=[[0,0.25,0,0,0],[0,0.75,0,0,0],[0.5,0,0,0,0],[0.5,1,0,0,0],[1,0.5,0,0,0]];" parent="MI3vTnZKfxx9PkZqP91Z-6" vertex="1" connectable="0">
          <mxGeometry x="360" y="-135.06" width="40" height="119.99999999999999" as="geometry" />
        </mxCell>
        <mxCell id="MI3vTnZKfxx9PkZqP91Z-37" value="" style="endArrow=none;html=1;rounded=0;labelBackgroundColor=default;strokeColor=default;fontFamily=Helvetica;fontSize=11;fontColor=default;shape=connector;" parent="MI3vTnZKfxx9PkZqP91Z-54" edge="1">
          <mxGeometry width="50" height="50" relative="1" as="geometry">
            <mxPoint as="sourcePoint" />
            <mxPoint as="targetPoint" />
            <Array as="points">
              <mxPoint x="30" />
              <mxPoint x="40" y="8.57142857142857" />
              <mxPoint x="40" y="111.42857142857142" />
              <mxPoint x="30" y="119.99999999999999" />
              <mxPoint x="20" y="119.99999999999999" />
              <mxPoint y="119.99999999999999" />
            </Array>
          </mxGeometry>
        </mxCell>
        <mxCell id="MI3vTnZKfxx9PkZqP91Z-38" value="" style="endArrow=none;html=1;rounded=0;labelBackgroundColor=default;strokeColor=default;fontFamily=Helvetica;fontSize=11;fontColor=default;shape=connector;" parent="MI3vTnZKfxx9PkZqP91Z-54" edge="1">
          <mxGeometry width="50" height="50" relative="1" as="geometry">
            <mxPoint as="sourcePoint" />
            <mxPoint as="targetPoint" />
          </mxGeometry>
        </mxCell>
        <mxCell id="MI3vTnZKfxx9PkZqP91Z-41" value="" style="endArrow=none;html=1;rounded=0;labelBackgroundColor=default;strokeColor=default;fontFamily=Helvetica;fontSize=11;fontColor=default;shape=connector;" parent="MI3vTnZKfxx9PkZqP91Z-54" edge="1">
          <mxGeometry width="50" height="50" relative="1" as="geometry">
            <mxPoint as="sourcePoint" />
            <mxPoint as="targetPoint" />
          </mxGeometry>
        </mxCell>
        <mxCell id="MI3vTnZKfxx9PkZqP91Z-43" value="0" style="text;html=1;align=left;verticalAlign=middle;resizable=0;points=[];autosize=1;strokeColor=none;fillColor=none;fontSize=11;fontFamily=Helvetica;fontColor=default;connectable=0;allowArrows=0;editable=1;movable=1;rotatable=0;deletable=1;locked=0;container=0;" parent="MI3vTnZKfxx9PkZqP91Z-54" vertex="1">
          <mxGeometry y="14" width="30" height="30" as="geometry" />
        </mxCell>
        <mxCell id="MI3vTnZKfxx9PkZqP91Z-48" value="1" style="text;html=1;align=left;verticalAlign=middle;resizable=0;points=[];autosize=1;strokeColor=none;fillColor=none;fontSize=11;fontFamily=Helvetica;fontColor=default;connectable=1;allowArrows=0;editable=1;movable=1;rotatable=0;deletable=1;locked=0;container=0;" parent="MI3vTnZKfxx9PkZqP91Z-54" vertex="1">
          <mxGeometry y="75" width="30" height="30" as="geometry" />
        </mxCell>
        <mxCell id="MI3vTnZKfxx9PkZqP91Z-51" value="&lt;b&gt;&lt;i&gt;M&lt;br&gt;u&lt;br&gt;x&lt;/i&gt;&lt;/b&gt;" style="text;html=1;align=center;verticalAlign=middle;resizable=1;points=[];autosize=1;strokeColor=none;fillColor=none;fontSize=11;fontFamily=Helvetica;fontColor=default;connectable=0;allowArrows=0;rotatable=0;container=0;resizeWidth=1;resizeHeight=1;" parent="MI3vTnZKfxx9PkZqP91Z-54" vertex="1">
          <mxGeometry x="5" y="34" width="30" height="50" as="geometry" />
        </mxCell>
        <mxCell id="MI3vTnZKfxx9PkZqP91Z-75" style="edgeStyle=none;shape=connector;rounded=0;orthogonalLoop=1;jettySize=auto;html=1;entryX=0.75;entryY=1;entryDx=0;entryDy=0;entryPerimeter=0;labelBackgroundColor=default;strokeColor=default;fontFamily=Helvetica;fontSize=11;fontColor=default;endArrow=classic;endFill=1;exitX=0.987;exitY=0.475;exitDx=0;exitDy=0;exitPerimeter=0;" parent="MI3vTnZKfxx9PkZqP91Z-6" source="MI3vTnZKfxx9PkZqP91Z-74" target="MI3vTnZKfxx9PkZqP91Z-29" edge="1">
          <mxGeometry relative="1" as="geometry" />
        </mxCell>
        <mxCell id="MI3vTnZKfxx9PkZqP91Z-74" value="4" style="text;html=1;align=center;verticalAlign=middle;resizable=0;points=[];autosize=1;strokeColor=none;fillColor=none;fontSize=11;fontFamily=Helvetica;fontColor=default;" parent="MI3vTnZKfxx9PkZqP91Z-6" vertex="1">
          <mxGeometry x="151" y="67.94" width="30" height="30" as="geometry" />
        </mxCell>
        <mxCell id="OpkzagluIzVOPS0O33I7-117" value="add" style="text;html=1;align=center;verticalAlign=middle;resizable=0;points=[];autosize=1;strokeColor=none;fillColor=none;fontSize=10;fontColor=#ff7920;" parent="MI3vTnZKfxx9PkZqP91Z-6" vertex="1">
          <mxGeometry x="215" y="98" width="40" height="30" as="geometry" />
        </mxCell>
        <mxCell id="MI3vTnZKfxx9PkZqP91Z-76" value="ID" style="" parent="0" />
        <mxCell id="MI3vTnZKfxx9PkZqP91Z-90" value="" style="group" parent="MI3vTnZKfxx9PkZqP91Z-76" vertex="1" connectable="0">
          <mxGeometry x="790" y="173" width="160" height="160" as="geometry" />
        </mxCell>
        <mxCell id="MI3vTnZKfxx9PkZqP91Z-77" value="&lt;b&gt;&lt;i&gt;Registers&lt;/i&gt;&lt;/b&gt;" style="whiteSpace=wrap;html=1;aspect=fixed;points=[[0,0,0,0,0],[0,0.12,0,0,0],[0,0.25,0,0,0],[0,0.5,0,0,0],[0,0.75,0,0,0],[0,0.87,0,0,0],[0,1,0,0,0],[0.25,0,0,0,0],[0.25,1,0,0,0],[0.5,0,0,0,0],[0.5,1,0,0,0],[0.75,0,0,0,0],[0.75,1,0,0,0],[1,0,0,0,0],[1,0.25,0,0,0],[1,0.5,0,0,0],[1,0.75,0,0,0],[1,1,0,0,0]];" parent="MI3vTnZKfxx9PkZqP91Z-90" vertex="1">
          <mxGeometry width="160" height="160" as="geometry" />
        </mxCell>
        <mxCell id="MI3vTnZKfxx9PkZqP91Z-78" value="Read Register 1" style="text;html=1;align=left;verticalAlign=middle;resizable=0;points=[];autosize=1;strokeColor=none;fillColor=none;fontSize=9;fontFamily=Helvetica;fontColor=default;" parent="MI3vTnZKfxx9PkZqP91Z-90" vertex="1">
          <mxGeometry x="3" y="10" width="90" height="20" as="geometry" />
        </mxCell>
        <mxCell id="MI3vTnZKfxx9PkZqP91Z-80" value="Read Register 2" style="text;html=1;align=left;verticalAlign=middle;resizable=0;points=[];autosize=1;strokeColor=none;fillColor=none;fontSize=9;fontFamily=Helvetica;fontColor=default;" parent="MI3vTnZKfxx9PkZqP91Z-90" vertex="1">
          <mxGeometry x="3" y="30" width="90" height="20" as="geometry" />
        </mxCell>
        <mxCell id="MI3vTnZKfxx9PkZqP91Z-82" value="Write Data" style="text;html=1;align=left;verticalAlign=middle;resizable=0;points=[];autosize=1;strokeColor=none;fillColor=none;fontSize=9;fontFamily=Helvetica;fontColor=default;" parent="MI3vTnZKfxx9PkZqP91Z-90" vertex="1">
          <mxGeometry x="3" y="130" width="70" height="20" as="geometry" />
        </mxCell>
        <mxCell id="MI3vTnZKfxx9PkZqP91Z-84" value="Write Registers" style="text;html=1;align=left;verticalAlign=middle;resizable=0;points=[];autosize=1;strokeColor=none;fillColor=none;fontSize=9;fontFamily=Helvetica;fontColor=default;" parent="MI3vTnZKfxx9PkZqP91Z-90" vertex="1">
          <mxGeometry x="3" y="110" width="80" height="20" as="geometry" />
        </mxCell>
        <mxCell id="MI3vTnZKfxx9PkZqP91Z-87" value="Read Data 1" style="text;html=1;align=right;verticalAlign=middle;resizable=0;points=[];autosize=1;strokeColor=none;fillColor=none;fontSize=9;fontFamily=Helvetica;fontColor=default;" parent="MI3vTnZKfxx9PkZqP91Z-90" vertex="1">
          <mxGeometry x="85" y="30" width="70" height="20" as="geometry" />
        </mxCell>
        <mxCell id="MI3vTnZKfxx9PkZqP91Z-88" value="Read Data 2" style="text;html=1;align=right;verticalAlign=middle;resizable=0;points=[];autosize=1;strokeColor=none;fillColor=none;fontSize=9;fontFamily=Helvetica;fontColor=default;" parent="MI3vTnZKfxx9PkZqP91Z-90" vertex="1">
          <mxGeometry x="85" y="110" width="70" height="20" as="geometry" />
        </mxCell>
        <mxCell id="MI3vTnZKfxx9PkZqP91Z-99" value="" style="edgeStyle=orthogonalEdgeStyle;orthogonalLoop=1;jettySize=auto;html=1;rounded=0;labelBackgroundColor=default;strokeColor=#0000FF;fontFamily=Helvetica;fontSize=11;fontColor=default;endArrow=none;shape=connector;entryX=0;entryY=0.75;entryDx=0;entryDy=0;entryPerimeter=0;exitX=1;exitY=0.88;exitDx=0;exitDy=0;exitPerimeter=0;" parent="MI3vTnZKfxx9PkZqP91Z-76" source="OpkzagluIzVOPS0O33I7-166" target="MI3vTnZKfxx9PkZqP91Z-77" edge="1">
          <mxGeometry width="100" relative="1" as="geometry">
            <mxPoint x="750" y="770" as="sourcePoint" />
            <mxPoint x="770" y="420" as="targetPoint" />
            <Array as="points">
              <mxPoint x="2440" y="645" />
              <mxPoint x="2440" y="800" />
              <mxPoint x="710" y="800" />
              <mxPoint x="710" y="293" />
            </Array>
          </mxGeometry>
        </mxCell>
        <mxCell id="MI3vTnZKfxx9PkZqP91Z-100" value="" style="edgeStyle=orthogonalEdgeStyle;orthogonalLoop=1;jettySize=auto;html=1;rounded=0;labelBackgroundColor=default;strokeColor=#FF0000;fontFamily=Helvetica;fontSize=11;fontColor=default;endArrow=none;shape=connector;entryX=0;entryY=0.87;entryDx=0;entryDy=0;entryPerimeter=0;exitX=1;exitY=0.5;exitDx=0;exitDy=0;exitPerimeter=0;" parent="MI3vTnZKfxx9PkZqP91Z-76" source="OpkzagluIzVOPS0O33I7-184" target="MI3vTnZKfxx9PkZqP91Z-77" edge="1">
          <mxGeometry width="100" relative="1" as="geometry">
            <mxPoint x="770" y="710" as="sourcePoint" />
            <mxPoint x="800" y="310" as="targetPoint" />
            <Array as="points">
              <mxPoint x="2720" y="367" />
              <mxPoint x="2720" y="840" />
              <mxPoint x="730" y="840" />
              <mxPoint x="730" y="312" />
            </Array>
          </mxGeometry>
        </mxCell>
        <mxCell id="MI3vTnZKfxx9PkZqP91Z-101" value="" style="orthogonalLoop=1;jettySize=auto;html=1;rounded=0;labelBackgroundColor=default;strokeColor=default;fontFamily=Helvetica;fontSize=11;fontColor=default;endArrow=classic;shape=connector;entryX=0;entryY=0.25;entryDx=0;entryDy=0;entryPerimeter=0;endFill=1;exitX=1;exitY=0.41;exitDx=0;exitDy=0;exitPerimeter=0;edgeStyle=orthogonalEdgeStyle;" parent="MI3vTnZKfxx9PkZqP91Z-76" target="MI3vTnZKfxx9PkZqP91Z-77" edge="1">
          <mxGeometry width="100" relative="1" as="geometry">
            <mxPoint x="600" y="285.9999999999998" as="sourcePoint" />
            <mxPoint x="690" y="310" as="targetPoint" />
            <Array as="points">
              <mxPoint x="680" y="286" />
              <mxPoint x="680" y="213" />
            </Array>
          </mxGeometry>
        </mxCell>
        <mxCell id="53aOUzcJgr9QoAV5sl4--57" value="if_instruction[20-16]" style="edgeLabel;html=1;align=center;verticalAlign=middle;resizable=0;points=[];fontSize=9;labelBackgroundColor=none;" vertex="1" connectable="0" parent="MI3vTnZKfxx9PkZqP91Z-101">
          <mxGeometry x="0.4867" y="1" relative="1" as="geometry">
            <mxPoint x="8" y="8" as="offset" />
          </mxGeometry>
        </mxCell>
        <mxCell id="MI3vTnZKfxx9PkZqP91Z-102" value="" style="orthogonalLoop=1;jettySize=auto;html=1;rounded=0;labelBackgroundColor=default;strokeColor=default;fontFamily=Helvetica;fontSize=11;fontColor=default;endArrow=classic;shape=connector;entryX=0;entryY=0.12;entryDx=0;entryDy=0;entryPerimeter=0;endFill=1;edgeStyle=orthogonalEdgeStyle;exitX=1;exitY=0.41;exitDx=0;exitDy=0;exitPerimeter=0;" parent="MI3vTnZKfxx9PkZqP91Z-76" target="MI3vTnZKfxx9PkZqP91Z-77" edge="1">
          <mxGeometry width="100" relative="1" as="geometry">
            <mxPoint x="600" y="285.9999999999998" as="sourcePoint" />
            <mxPoint x="800" y="230" as="targetPoint" />
            <Array as="points">
              <mxPoint x="680" y="286" />
              <mxPoint x="680" y="192" />
            </Array>
          </mxGeometry>
        </mxCell>
        <mxCell id="53aOUzcJgr9QoAV5sl4--54" value="if_instruction[25-21]" style="edgeLabel;html=1;align=center;verticalAlign=middle;resizable=0;points=[];fontSize=9;labelBackgroundColor=none;" vertex="1" connectable="0" parent="MI3vTnZKfxx9PkZqP91Z-102">
          <mxGeometry x="0.5361" y="2" relative="1" as="geometry">
            <mxPoint x="6" y="-5" as="offset" />
          </mxGeometry>
        </mxCell>
        <mxCell id="MI3vTnZKfxx9PkZqP91Z-105" value="" style="orthogonalLoop=1;jettySize=auto;html=1;rounded=0;labelBackgroundColor=default;strokeColor=default;fontFamily=Helvetica;fontSize=11;fontColor=default;endArrow=none;shape=connector;entryX=0.5;entryY=1;entryDx=0;entryDy=0;entryPerimeter=0;exitX=1;exitY=0.41;exitDx=0;exitDy=0;exitPerimeter=0;edgeStyle=elbowEdgeStyle;" parent="MI3vTnZKfxx9PkZqP91Z-76" target="MI3vTnZKfxx9PkZqP91Z-91" edge="1">
          <mxGeometry width="100" relative="1" as="geometry">
            <mxPoint x="600" y="285.9999999999998" as="sourcePoint" />
            <mxPoint x="890" y="490" as="targetPoint" />
            <Array as="points">
              <mxPoint x="680" y="390" />
            </Array>
          </mxGeometry>
        </mxCell>
        <mxCell id="53aOUzcJgr9QoAV5sl4--53" value="if_instruction[15-0]" style="edgeLabel;html=1;align=center;verticalAlign=middle;resizable=0;points=[];fontSize=10;fontColor=#190033;labelBackgroundColor=none;fontFamily=Helvetica;spacing=0;" vertex="1" connectable="0" parent="MI3vTnZKfxx9PkZqP91Z-105">
          <mxGeometry x="0.7616" y="1" relative="1" as="geometry">
            <mxPoint x="-5" y="-7" as="offset" />
          </mxGeometry>
        </mxCell>
        <mxCell id="MI3vTnZKfxx9PkZqP91Z-106" value="" style="group" parent="MI3vTnZKfxx9PkZqP91Z-76" vertex="1" connectable="0">
          <mxGeometry x="840" y="440" width="60" height="93" as="geometry" />
        </mxCell>
        <mxCell id="MI3vTnZKfxx9PkZqP91Z-91" value="" style="ellipse;whiteSpace=wrap;html=1;fontFamily=Helvetica;fontSize=11;fontColor=default;rotation=90;points=[[0,0,0,0,0],[0,0.5,0,0,0],[0,1,0,0,0],[0.5,0,0,0,0],[0.5,1,0,0,0],[1,0,0,0,0],[1,0.5,0,0,0],[1,1,0,0,0]];" parent="MI3vTnZKfxx9PkZqP91Z-106" vertex="1">
          <mxGeometry x="-16.5" y="23.403225806451587" width="93" height="46.193548387096776" as="geometry" />
        </mxCell>
        <mxCell id="MI3vTnZKfxx9PkZqP91Z-92" value="&lt;b&gt;&lt;i&gt;Sign&lt;br&gt;Extend&lt;/i&gt;&lt;/b&gt;" style="text;html=1;align=center;verticalAlign=middle;resizable=0;points=[];autosize=1;strokeColor=none;fillColor=none;fontSize=11;fontFamily=Helvetica;fontColor=default;rotatable=0;connectable=0;allowArrows=0;" parent="MI3vTnZKfxx9PkZqP91Z-106" vertex="1">
          <mxGeometry y="25.860000000000014" width="60" height="40" as="geometry" />
        </mxCell>
        <mxCell id="MI3vTnZKfxx9PkZqP91Z-113" value="" style="edgeStyle=orthogonalEdgeStyle;orthogonalLoop=1;jettySize=auto;html=1;rounded=0;labelBackgroundColor=default;strokeColor=default;fontFamily=Helvetica;fontSize=11;fontColor=default;endArrow=classic;shape=connector;endFill=1;exitX=1;exitY=0.41;exitDx=0;exitDy=0;exitPerimeter=0;entryX=0.5;entryY=1;entryDx=0;entryDy=0;entryPerimeter=0;" parent="MI3vTnZKfxx9PkZqP91Z-76" target="MI3vTnZKfxx9PkZqP91Z-111" edge="1">
          <mxGeometry width="100" relative="1" as="geometry">
            <mxPoint x="600" y="285.9999999999998" as="sourcePoint" />
            <mxPoint x="670" as="targetPoint" />
            <Array as="points">
              <mxPoint x="680" y="286" />
              <mxPoint x="680" y="-32" />
            </Array>
          </mxGeometry>
        </mxCell>
        <mxCell id="OpkzagluIzVOPS0O33I7-119" style="edgeStyle=orthogonalEdgeStyle;rounded=0;orthogonalLoop=1;jettySize=auto;html=1;entryX=0;entryY=0.82;entryDx=0;entryDy=0;entryPerimeter=0;exitX=1;exitY=0.41;exitDx=0;exitDy=0;exitPerimeter=0;" parent="MI3vTnZKfxx9PkZqP91Z-76" source="OpkzagluIzVOPS0O33I7-114" target="OpkzagluIzVOPS0O33I7-76" edge="1">
          <mxGeometry relative="1" as="geometry">
            <mxPoint x="660" y="360" as="sourcePoint" />
            <mxPoint x="990" y="602" as="targetPoint" />
            <Array as="points">
              <mxPoint x="680" y="286" />
              <mxPoint x="680" y="602" />
            </Array>
          </mxGeometry>
        </mxCell>
        <mxCell id="53aOUzcJgr9QoAV5sl4--49" value="if_instruction" style="edgeLabel;html=1;align=center;verticalAlign=middle;resizable=0;points=[];fontColor=#190033;labelBackgroundColor=none;" vertex="1" connectable="0" parent="OpkzagluIzVOPS0O33I7-119">
          <mxGeometry x="-0.8125" y="-2" relative="1" as="geometry">
            <mxPoint x="12" y="-10" as="offset" />
          </mxGeometry>
        </mxCell>
        <mxCell id="OpkzagluIzVOPS0O33I7-120" value="" style="edgeStyle=none;orthogonalLoop=1;jettySize=auto;html=1;rounded=0;entryX=0;entryY=0.69;entryDx=0;entryDy=0;entryPerimeter=0;exitX=0.5;exitY=0;exitDx=0;exitDy=0;exitPerimeter=0;" parent="MI3vTnZKfxx9PkZqP91Z-76" source="MI3vTnZKfxx9PkZqP91Z-91" target="OpkzagluIzVOPS0O33I7-76" edge="1">
          <mxGeometry width="100" relative="1" as="geometry">
            <mxPoint x="950" y="530" as="sourcePoint" />
            <mxPoint x="1010" y="490" as="targetPoint" />
            <Array as="points" />
          </mxGeometry>
        </mxCell>
        <mxCell id="53aOUzcJgr9QoAV5sl4--52" value="signal_extend" style="edgeLabel;html=1;align=center;verticalAlign=middle;resizable=0;points=[];fontColor=#190033;fontSize=10;labelBackgroundColor=none;fontFamily=Helvetica;" vertex="1" connectable="0" parent="OpkzagluIzVOPS0O33I7-120">
          <mxGeometry x="-0.4254" relative="1" as="geometry">
            <mxPoint x="16" y="-9" as="offset" />
          </mxGeometry>
        </mxCell>
        <mxCell id="OpkzagluIzVOPS0O33I7-128" style="edgeStyle=orthogonalEdgeStyle;rounded=0;orthogonalLoop=1;jettySize=auto;html=1;exitX=1;exitY=0.25;exitDx=0;exitDy=0;exitPerimeter=0;entryX=0;entryY=0.39;entryDx=0;entryDy=0;entryPerimeter=0;" parent="MI3vTnZKfxx9PkZqP91Z-76" source="MI3vTnZKfxx9PkZqP91Z-77" target="OpkzagluIzVOPS0O33I7-76" edge="1">
          <mxGeometry relative="1" as="geometry" />
        </mxCell>
        <mxCell id="OpkzagluIzVOPS0O33I7-129" style="edgeStyle=orthogonalEdgeStyle;rounded=0;orthogonalLoop=1;jettySize=auto;html=1;exitX=1;exitY=0.75;exitDx=0;exitDy=0;exitPerimeter=0;entryX=0;entryY=0.47;entryDx=0;entryDy=0;entryPerimeter=0;" parent="MI3vTnZKfxx9PkZqP91Z-76" source="MI3vTnZKfxx9PkZqP91Z-77" target="OpkzagluIzVOPS0O33I7-76" edge="1">
          <mxGeometry relative="1" as="geometry" />
        </mxCell>
        <mxCell id="53aOUzcJgr9QoAV5sl4--35" style="edgeStyle=orthogonalEdgeStyle;rounded=0;orthogonalLoop=1;jettySize=auto;html=1;exitX=0;exitY=0.5;exitDx=0;exitDy=0;exitPerimeter=0;entryX=0;entryY=0.04;entryDx=0;entryDy=0;entryPerimeter=0;" edge="1" parent="MI3vTnZKfxx9PkZqP91Z-76" source="MI3vTnZKfxx9PkZqP91Z-111" target="OpkzagluIzVOPS0O33I7-76">
          <mxGeometry relative="1" as="geometry">
            <mxPoint x="660" y="-88.42500000000007" as="sourcePoint" />
            <mxPoint x="883.5000000000002" y="-112.39999999999998" as="targetPoint" />
            <Array as="points">
              <mxPoint x="766" y="-80" />
              <mxPoint x="767" y="-85" />
            </Array>
          </mxGeometry>
        </mxCell>
        <mxCell id="53aOUzcJgr9QoAV5sl4--72" value="WB(MemtoReg)" style="edgeLabel;html=1;align=center;verticalAlign=middle;resizable=0;points=[];fontSize=9;labelBackgroundColor=none;fontColor=#190033;" vertex="1" connectable="0" parent="53aOUzcJgr9QoAV5sl4--35">
          <mxGeometry x="-0.4965" y="-4" relative="1" as="geometry">
            <mxPoint x="32" y="-11" as="offset" />
          </mxGeometry>
        </mxCell>
        <mxCell id="53aOUzcJgr9QoAV5sl4--36" style="edgeStyle=orthogonalEdgeStyle;rounded=0;orthogonalLoop=1;jettySize=auto;html=1;exitX=0.5;exitY=0;exitDx=0;exitDy=0;exitPerimeter=0;entryX=0;entryY=0.1;entryDx=0;entryDy=0;entryPerimeter=0;" edge="1" parent="MI3vTnZKfxx9PkZqP91Z-76" source="MI3vTnZKfxx9PkZqP91Z-111" target="OpkzagluIzVOPS0O33I7-76">
          <mxGeometry relative="1" as="geometry" />
        </mxCell>
        <mxCell id="53aOUzcJgr9QoAV5sl4--37" style="edgeStyle=orthogonalEdgeStyle;rounded=0;orthogonalLoop=1;jettySize=auto;html=1;exitX=1;exitY=0.5;exitDx=0;exitDy=0;exitPerimeter=0;entryX=0;entryY=0.16;entryDx=0;entryDy=0;entryPerimeter=0;" edge="1" parent="MI3vTnZKfxx9PkZqP91Z-76" source="MI3vTnZKfxx9PkZqP91Z-111" target="OpkzagluIzVOPS0O33I7-76">
          <mxGeometry relative="1" as="geometry">
            <Array as="points">
              <mxPoint x="766" y="20" />
              <mxPoint x="895" y="20" />
            </Array>
          </mxGeometry>
        </mxCell>
        <mxCell id="MI3vTnZKfxx9PkZqP91Z-111" value="" style="ellipse;whiteSpace=wrap;html=1;fontFamily=Helvetica;fontSize=11;fontColor=default;rotation=90;points=[[0,0,0,0,0],[0,0.5,0,0,0],[0,1,0,0,0],[0.5,0,0,0,0],[0.5,1,0,0,0],[1,0,0,0,0],[1,0.5,0,0,0],[1,1,0,0,0]];container=0;" parent="MI3vTnZKfxx9PkZqP91Z-76" vertex="1">
          <mxGeometry x="719.9999999999999" y="-66" width="93" height="68.15" as="geometry" />
        </mxCell>
        <mxCell id="MI3vTnZKfxx9PkZqP91Z-112" value="&lt;b&gt;&lt;i&gt;CONTROL&lt;/i&gt;&lt;/b&gt;" style="text;html=1;align=center;verticalAlign=middle;resizable=0;points=[];autosize=1;strokeColor=none;fillColor=none;fontSize=11;fontFamily=Helvetica;fontColor=default;rotatable=0;connectable=0;allowArrows=0;container=0;" parent="MI3vTnZKfxx9PkZqP91Z-76" vertex="1">
          <mxGeometry x="726.5" y="-46.92" width="80" height="30" as="geometry" />
        </mxCell>
        <mxCell id="OpkzagluIzVOPS0O33I7-5" value="EX" style="" parent="0" />
        <mxCell id="OpkzagluIzVOPS0O33I7-72" value="" style="group" parent="OpkzagluIzVOPS0O33I7-5" vertex="1" connectable="0">
          <mxGeometry x="1220" y="439.995" width="80" height="93" as="geometry" />
        </mxCell>
        <mxCell id="OpkzagluIzVOPS0O33I7-73" value="" style="ellipse;whiteSpace=wrap;html=1;fontFamily=Helvetica;fontSize=11;fontColor=default;rotation=90;points=[[0,0,0,0,0],[0,0.5,0,0,0],[0,1,0,0,0],[0.5,0,0,0,0],[0.5,1,0,0,0],[1,0,0,0,0],[1,0.5,0,0,0],[1,1,0,0,0]];container=0;" parent="OpkzagluIzVOPS0O33I7-72" vertex="1">
          <mxGeometry x="-5.920000000000073" y="12.424999999999997" width="93" height="68.15" as="geometry" />
        </mxCell>
        <mxCell id="OpkzagluIzVOPS0O33I7-74" value="&lt;b&gt;&lt;i&gt;ALU&lt;br&gt;CONTROL&lt;br&gt;&lt;/i&gt;&lt;/b&gt;" style="text;html=1;align=center;verticalAlign=middle;resizable=0;points=[];autosize=1;strokeColor=none;fillColor=none;fontSize=11;fontFamily=Helvetica;fontColor=default;rotatable=0;connectable=0;allowArrows=0;container=0;" parent="OpkzagluIzVOPS0O33I7-72" vertex="1">
          <mxGeometry y="26.50500000000001" width="80" height="40" as="geometry" />
        </mxCell>
        <mxCell id="OpkzagluIzVOPS0O33I7-55" value="" style="group" parent="OpkzagluIzVOPS0O33I7-5" vertex="1" connectable="0">
          <mxGeometry x="1090" y="71" width="60" height="73" as="geometry" />
        </mxCell>
        <mxCell id="OpkzagluIzVOPS0O33I7-56" value="" style="ellipse;whiteSpace=wrap;html=1;fontFamily=Helvetica;fontSize=11;fontColor=default;rotation=90;points=[[0,0,0,0,0],[0,0.5,0,0,0],[0,1,0,0,0],[0.5,0,0,0,0],[0.5,1,0,0,0],[1,0,0,0,0],[1,0.5,0,0,0],[1,1,0,0,0]];" parent="OpkzagluIzVOPS0O33I7-55" vertex="1">
          <mxGeometry y="18.37" width="60" height="36.26" as="geometry" />
        </mxCell>
        <mxCell id="OpkzagluIzVOPS0O33I7-57" value="&lt;span&gt;&lt;span&gt;Shift&lt;br&gt;&lt;/span&gt;&lt;/span&gt;Left 2" style="text;html=1;align=center;verticalAlign=middle;resizable=0;points=[];autosize=1;strokeColor=none;fillColor=none;fontSize=11;fontFamily=Helvetica;fontColor=default;rotatable=0;connectable=0;allowArrows=0;fontStyle=3" parent="OpkzagluIzVOPS0O33I7-55" vertex="1">
          <mxGeometry x="5" y="16.298709677419364" width="50" height="40" as="geometry" />
        </mxCell>
        <mxCell id="OpkzagluIzVOPS0O33I7-25" style="rounded=0;orthogonalLoop=1;jettySize=auto;html=1;exitX=0.55;exitY=0;exitDx=0;exitDy=0;exitPerimeter=0;entryX=0;entryY=0.47;entryDx=0;entryDy=0;entryPerimeter=0;edgeStyle=orthogonalEdgeStyle;" parent="OpkzagluIzVOPS0O33I7-5" source="OpkzagluIzVOPS0O33I7-8" edge="1">
          <mxGeometry relative="1" as="geometry">
            <mxPoint x="1670" y="293.5999999999999" as="targetPoint" />
          </mxGeometry>
        </mxCell>
        <mxCell id="OpkzagluIzVOPS0O33I7-26" style="rounded=0;orthogonalLoop=1;jettySize=auto;html=1;exitX=0.45;exitY=0;exitDx=0;exitDy=0;exitPerimeter=0;entryX=0;entryY=0.41;entryDx=0;entryDy=0;entryPerimeter=0;edgeStyle=orthogonalEdgeStyle;" parent="OpkzagluIzVOPS0O33I7-5" source="OpkzagluIzVOPS0O33I7-8" edge="1">
          <mxGeometry relative="1" as="geometry">
            <mxPoint x="1535.5" y="270.32" as="sourcePoint" />
            <mxPoint x="1670" y="240.79999999999995" as="targetPoint" />
          </mxGeometry>
        </mxCell>
        <mxCell id="OpkzagluIzVOPS0O33I7-28" style="rounded=0;orthogonalLoop=1;jettySize=auto;html=1;exitX=1;exitY=0.5;exitDx=0;exitDy=0;exitPerimeter=0;entryX=0.75;entryY=1;entryDx=0;entryDy=0;entryPerimeter=0;edgeStyle=orthogonalEdgeStyle;" parent="OpkzagluIzVOPS0O33I7-5" source="OpkzagluIzVOPS0O33I7-30" target="OpkzagluIzVOPS0O33I7-8" edge="1">
          <mxGeometry relative="1" as="geometry">
            <mxPoint x="1360" y="300" as="targetPoint" />
          </mxGeometry>
        </mxCell>
        <mxCell id="OpkzagluIzVOPS0O33I7-38" value="" style="group" parent="OpkzagluIzVOPS0O33I7-5" vertex="1" connectable="0">
          <mxGeometry x="1401" y="156" width="91.25" height="220" as="geometry" />
        </mxCell>
        <mxCell id="OpkzagluIzVOPS0O33I7-18" value="Alu Result" style="text;html=1;align=center;verticalAlign=middle;resizable=0;points=[];autosize=1;strokeColor=none;fillColor=none;fontSize=10;connectable=0;allowArrows=0;" parent="OpkzagluIzVOPS0O33I7-38" vertex="1">
          <mxGeometry x="21.25" y="104.5" width="70" height="30" as="geometry" />
        </mxCell>
        <mxCell id="OpkzagluIzVOPS0O33I7-17" value="Zero" style="text;html=1;align=center;verticalAlign=middle;resizable=0;points=[];autosize=1;strokeColor=none;fillColor=none;fontSize=10;connectable=0;allowArrows=0;" parent="OpkzagluIzVOPS0O33I7-38" vertex="1">
          <mxGeometry x="47.25" y="83.5" width="40" height="30" as="geometry" />
        </mxCell>
        <mxCell id="OpkzagluIzVOPS0O33I7-8" value="" style="group;rotation=90;fontFamily=Helvetica;fontSize=11;fontColor=default;connectable=1;points=[[0,1,0,0,0],[0.25,1,0,0,0],[0.45,0,0,0,0],[0.5,0,0,0,0],[0.55,0,0,0,0],[0.75,1,0,0,0],[1,1,0,0,0]];" parent="OpkzagluIzVOPS0O33I7-38" vertex="1" connectable="0">
          <mxGeometry x="-68.75" y="68.75" width="220" height="82.5" as="geometry" />
        </mxCell>
        <mxCell id="OpkzagluIzVOPS0O33I7-9" value="" style="endArrow=none;html=1;rounded=0;movable=1;resizable=1;rotatable=1;deletable=1;editable=1;locked=0;connectable=1;endFill=0;snapToPoint=1;orthogonalLoop=1;labelBackgroundColor=default;strokeColor=default;fontFamily=Helvetica;fontSize=11;fontColor=default;shape=connector;" parent="OpkzagluIzVOPS0O33I7-8" edge="1">
          <mxGeometry width="50" height="50" relative="1" as="geometry">
            <mxPoint x="151.25" y="68.75000000000001" as="sourcePoint" />
            <mxPoint x="151.25" y="68.75000000000001" as="targetPoint" />
            <Array as="points">
              <mxPoint x="151.25" y="13.75" />
              <mxPoint x="68.75" y="-68.75000000000001" />
              <mxPoint x="68.75" y="13.75" />
              <mxPoint x="96.25" y="41.25" />
              <mxPoint x="68.75" y="68.75000000000001" />
              <mxPoint x="68.75" y="151.25" />
            </Array>
          </mxGeometry>
        </mxCell>
        <mxCell id="OpkzagluIzVOPS0O33I7-29" value="ALU" style="text;html=1;align=center;verticalAlign=middle;resizable=0;points=[];autosize=1;strokeColor=none;fillColor=none;fontStyle=3" parent="OpkzagluIzVOPS0O33I7-8" vertex="1">
          <mxGeometry x="80" y="-8.75" width="50" height="30" as="geometry" />
        </mxCell>
        <mxCell id="OpkzagluIzVOPS0O33I7-53" value="" style="group" parent="OpkzagluIzVOPS0O33I7-5" vertex="1" connectable="0">
          <mxGeometry x="1370" y="31" width="100" height="100" as="geometry" />
        </mxCell>
        <mxCell id="OpkzagluIzVOPS0O33I7-47" value="add" style="text;html=1;align=center;verticalAlign=middle;resizable=0;points=[];autosize=1;strokeColor=none;fillColor=none;fontSize=10;fontColor=#ff7920;" parent="OpkzagluIzVOPS0O33I7-53" vertex="1">
          <mxGeometry x="26" y="35" width="40" height="30" as="geometry" />
        </mxCell>
        <mxCell id="OpkzagluIzVOPS0O33I7-48" style="shape=connector;rounded=0;orthogonalLoop=1;jettySize=auto;html=1;entryX=0.25;entryY=1;entryDx=0;entryDy=0;entryPerimeter=0;labelBackgroundColor=default;strokeColor=default;fontFamily=Helvetica;fontSize=11;fontColor=default;endArrow=classic;endFill=1;exitX=1;exitY=0.2;exitDx=0;exitDy=0;exitPerimeter=0;edgeStyle=orthogonalEdgeStyle;" parent="OpkzagluIzVOPS0O33I7-53" target="OpkzagluIzVOPS0O33I7-49" edge="1" source="OpkzagluIzVOPS0O33I7-76">
          <mxGeometry relative="1" as="geometry">
            <mxPoint x="-340" y="24.799999999999955" as="sourcePoint" />
          </mxGeometry>
        </mxCell>
        <mxCell id="OpkzagluIzVOPS0O33I7-49" value="" style="group;rotation=90;fontFamily=Helvetica;fontSize=11;fontColor=default;connectable=1;points=[[0,1,0,0,0],[0.25,1,0,0,0],[0.5,0,0,0,0],[0.75,1,0,0,0],[1,1,0,0,0]];" parent="OpkzagluIzVOPS0O33I7-53" vertex="1" connectable="0">
          <mxGeometry x="-7" y="31.25" width="100" height="37.5" as="geometry" />
        </mxCell>
        <mxCell id="OpkzagluIzVOPS0O33I7-50" value="" style="endArrow=none;html=1;rounded=0;movable=1;resizable=1;rotatable=1;deletable=1;editable=1;locked=0;connectable=1;endFill=0;snapToPoint=1;orthogonalLoop=1;labelBackgroundColor=default;strokeColor=#ff6600;fontFamily=Helvetica;fontSize=11;fontColor=default;shape=connector;fillColor=#0050ef;" parent="OpkzagluIzVOPS0O33I7-49" edge="1">
          <mxGeometry width="50" height="50" relative="1" as="geometry">
            <mxPoint x="68.75" y="31.25" as="sourcePoint" />
            <mxPoint x="68.75" y="31.25" as="targetPoint" />
            <Array as="points">
              <mxPoint x="68.75" y="6.25" />
              <mxPoint x="31.25" y="-31.25" />
              <mxPoint x="31.25" y="6.25" />
              <mxPoint x="43.75" y="18.75" />
              <mxPoint x="31.25" y="31.25" />
              <mxPoint x="31.25" y="68.75" />
            </Array>
          </mxGeometry>
        </mxCell>
        <mxCell id="OpkzagluIzVOPS0O33I7-52" value="" style="edgeStyle=orthogonalEdgeStyle;orthogonalLoop=1;jettySize=auto;html=1;rounded=0;exitX=0.5;exitY=0;exitDx=0;exitDy=0;exitPerimeter=0;entryX=0;entryY=0.24;entryDx=0;entryDy=0;entryPerimeter=0;" parent="OpkzagluIzVOPS0O33I7-53" source="OpkzagluIzVOPS0O33I7-49" edge="1" target="OpkzagluIzVOPS0O33I7-165">
          <mxGeometry width="100" relative="1" as="geometry">
            <mxPoint x="120" y="100" as="sourcePoint" />
            <mxPoint x="300" y="51.19999999999982" as="targetPoint" />
          </mxGeometry>
        </mxCell>
        <mxCell id="OpkzagluIzVOPS0O33I7-51" style="edgeStyle=orthogonalEdgeStyle;shape=connector;rounded=0;orthogonalLoop=1;jettySize=auto;html=1;entryX=0.75;entryY=1;entryDx=0;entryDy=0;entryPerimeter=0;labelBackgroundColor=default;strokeColor=#FF0000;fontFamily=Helvetica;fontSize=11;fontColor=default;endArrow=classic;endFill=1;exitX=0.5;exitY=0;exitDx=0;exitDy=0;exitPerimeter=0;" parent="OpkzagluIzVOPS0O33I7-5" source="OpkzagluIzVOPS0O33I7-56" target="OpkzagluIzVOPS0O33I7-49" edge="1">
          <mxGeometry relative="1" as="geometry">
            <mxPoint x="1371" y="115.25" as="sourcePoint" />
            <Array as="points">
              <mxPoint x="1138" y="106" />
            </Array>
          </mxGeometry>
        </mxCell>
        <mxCell id="OpkzagluIzVOPS0O33I7-85" style="rounded=0;orthogonalLoop=1;jettySize=auto;html=1;exitX=1;exitY=0.39;exitDx=0;exitDy=0;exitPerimeter=0;entryX=0.25;entryY=1;entryDx=0;entryDy=0;entryPerimeter=0;edgeStyle=orthogonalEdgeStyle;strokeColor=#00FF00;" parent="OpkzagluIzVOPS0O33I7-5" target="OpkzagluIzVOPS0O33I7-8" edge="1">
          <mxGeometry relative="1" as="geometry">
            <mxPoint x="1030" y="223" as="sourcePoint" />
            <mxPoint x="1310" y="200" as="targetPoint" />
          </mxGeometry>
        </mxCell>
        <mxCell id="OpkzagluIzVOPS0O33I7-87" value="" style="edgeStyle=orthogonalEdgeStyle;orthogonalLoop=1;jettySize=auto;html=1;rounded=0;entryX=1;entryY=0.5;entryDx=0;entryDy=0;entryPerimeter=0;exitX=1;exitY=0.69;exitDx=0;exitDy=0;exitPerimeter=0;strokeColor=#FF0000;" parent="OpkzagluIzVOPS0O33I7-5" target="OpkzagluIzVOPS0O33I7-56" edge="1">
          <mxGeometry width="100" relative="1" as="geometry">
            <mxPoint x="1030" y="487" as="sourcePoint" />
            <mxPoint x="1120" y="146" as="targetPoint" />
          </mxGeometry>
        </mxCell>
        <mxCell id="OpkzagluIzVOPS0O33I7-142" style="edgeStyle=orthogonalEdgeStyle;rounded=0;orthogonalLoop=1;jettySize=auto;html=1;exitX=1;exitY=0.5;exitDx=0;exitDy=0;exitPerimeter=0;entryX=0;entryY=0.86;entryDx=0;entryDy=0;entryPerimeter=0;" parent="OpkzagluIzVOPS0O33I7-5" source="OpkzagluIzVOPS0O33I7-93" edge="1">
          <mxGeometry relative="1" as="geometry">
            <mxPoint x="1670" y="636.8" as="targetPoint" />
          </mxGeometry>
        </mxCell>
        <mxCell id="OpkzagluIzVOPS0O33I7-93" value="" style="group;connectable=1;points=[[0,0.25,0,0,0],[0,0.75,0,0,0],[0.5,0,0,0,0],[0.5,1,0,0,0],[1,0.5,0,0,0]];" parent="OpkzagluIzVOPS0O33I7-5" vertex="1" connectable="0">
          <mxGeometry x="1250" y="576.0000000000001" width="40" height="119.99999999999999" as="geometry" />
        </mxCell>
        <mxCell id="OpkzagluIzVOPS0O33I7-94" value="" style="endArrow=none;html=1;rounded=0;labelBackgroundColor=default;strokeColor=default;fontFamily=Helvetica;fontSize=11;fontColor=default;shape=connector;" parent="OpkzagluIzVOPS0O33I7-93" edge="1">
          <mxGeometry width="50" height="50" relative="1" as="geometry">
            <mxPoint as="sourcePoint" />
            <mxPoint as="targetPoint" />
            <Array as="points">
              <mxPoint x="30" />
              <mxPoint x="40" y="8.57142857142857" />
              <mxPoint x="40" y="111.42857142857142" />
              <mxPoint x="30" y="119.99999999999999" />
              <mxPoint x="20" y="119.99999999999999" />
              <mxPoint y="119.99999999999999" />
            </Array>
          </mxGeometry>
        </mxCell>
        <mxCell id="OpkzagluIzVOPS0O33I7-95" value="" style="endArrow=none;html=1;rounded=0;labelBackgroundColor=default;strokeColor=default;fontFamily=Helvetica;fontSize=11;fontColor=default;shape=connector;" parent="OpkzagluIzVOPS0O33I7-93" edge="1">
          <mxGeometry width="50" height="50" relative="1" as="geometry">
            <mxPoint as="sourcePoint" />
            <mxPoint as="targetPoint" />
          </mxGeometry>
        </mxCell>
        <mxCell id="OpkzagluIzVOPS0O33I7-96" value="" style="endArrow=none;html=1;rounded=0;labelBackgroundColor=default;strokeColor=default;fontFamily=Helvetica;fontSize=11;fontColor=default;shape=connector;" parent="OpkzagluIzVOPS0O33I7-93" edge="1">
          <mxGeometry width="50" height="50" relative="1" as="geometry">
            <mxPoint as="sourcePoint" />
            <mxPoint as="targetPoint" />
          </mxGeometry>
        </mxCell>
        <mxCell id="OpkzagluIzVOPS0O33I7-99" value="M&lt;br&gt;u&lt;br&gt;x" style="text;html=1;align=center;verticalAlign=middle;resizable=1;points=[];autosize=1;strokeColor=none;fillColor=none;fontSize=11;fontFamily=Helvetica;fontColor=default;connectable=0;allowArrows=0;rotatable=0;container=0;resizeWidth=1;resizeHeight=1;" parent="OpkzagluIzVOPS0O33I7-93" vertex="1">
          <mxGeometry x="5" y="34" width="30" height="50" as="geometry" />
        </mxCell>
        <mxCell id="OpkzagluIzVOPS0O33I7-132" style="edgeStyle=orthogonalEdgeStyle;rounded=0;orthogonalLoop=1;jettySize=auto;html=1;exitX=1;exitY=0.9;exitDx=0;exitDy=0;exitPerimeter=0;entryX=0;entryY=0.75;entryDx=0;entryDy=0;entryPerimeter=0;" parent="OpkzagluIzVOPS0O33I7-5" source="OpkzagluIzVOPS0O33I7-76" target="OpkzagluIzVOPS0O33I7-93" edge="1">
          <mxGeometry relative="1" as="geometry">
            <Array as="points">
              <mxPoint x="1150" y="672" />
              <mxPoint x="1150" y="666" />
            </Array>
          </mxGeometry>
        </mxCell>
        <mxCell id="OpkzagluIzVOPS0O33I7-133" value="1" style="text;html=1;align=left;verticalAlign=middle;resizable=0;points=[];autosize=1;strokeColor=none;fillColor=none;fontSize=11;fontFamily=Helvetica;fontColor=default;connectable=1;allowArrows=0;editable=1;movable=1;rotatable=0;deletable=1;locked=0;container=0;" parent="OpkzagluIzVOPS0O33I7-5" vertex="1">
          <mxGeometry x="1250" y="646.0000000000001" width="30" height="30" as="geometry" />
        </mxCell>
        <mxCell id="OpkzagluIzVOPS0O33I7-135" style="edgeStyle=orthogonalEdgeStyle;rounded=0;orthogonalLoop=1;jettySize=auto;html=1;exitX=1;exitY=0.69;exitDx=0;exitDy=0;exitPerimeter=0;entryX=0.5;entryY=1;entryDx=0;entryDy=0;entryPerimeter=0;strokeColor=#FF0000;" parent="OpkzagluIzVOPS0O33I7-5" source="OpkzagluIzVOPS0O33I7-76" target="OpkzagluIzVOPS0O33I7-73" edge="1">
          <mxGeometry relative="1" as="geometry">
            <mxPoint x="1170" y="500" as="targetPoint" />
          </mxGeometry>
        </mxCell>
        <mxCell id="OpkzagluIzVOPS0O33I7-148" style="edgeStyle=orthogonalEdgeStyle;rounded=0;orthogonalLoop=1;jettySize=auto;html=1;exitX=1;exitY=0.82;exitDx=0;exitDy=0;exitPerimeter=0;entryX=0;entryY=0.25;entryDx=0;entryDy=0;entryPerimeter=0;" parent="OpkzagluIzVOPS0O33I7-5" target="OpkzagluIzVOPS0O33I7-93" edge="1">
          <mxGeometry relative="1" as="geometry">
            <mxPoint x="1030" y="602" as="sourcePoint" />
            <mxPoint x="1210" y="590" as="targetPoint" />
            <Array as="points">
              <mxPoint x="1150" y="602" />
              <mxPoint x="1150" y="606" />
            </Array>
          </mxGeometry>
        </mxCell>
        <mxCell id="OpkzagluIzVOPS0O33I7-97" value="0" style="text;html=1;align=left;verticalAlign=middle;resizable=0;points=[];autosize=1;strokeColor=none;fillColor=none;fontSize=11;fontFamily=Helvetica;fontColor=default;connectable=0;allowArrows=0;editable=1;movable=1;rotatable=0;deletable=1;locked=0;container=0;" parent="OpkzagluIzVOPS0O33I7-5" vertex="1">
          <mxGeometry x="1251" y="591.0000000000001" width="30" height="30" as="geometry" />
        </mxCell>
        <mxCell id="OpkzagluIzVOPS0O33I7-83" value="" style="group" parent="OpkzagluIzVOPS0O33I7-5" vertex="1" connectable="0">
          <mxGeometry x="1190" y="267" width="80" height="120" as="geometry" />
        </mxCell>
        <mxCell id="OpkzagluIzVOPS0O33I7-30" value="" style="group;connectable=1;points=[[0,0.25,0,0,0],[0,0.75,0,0,0],[0.5,0,0,0,0],[0.5,1,0,0,0],[1,0.5,0,0,0]];" parent="OpkzagluIzVOPS0O33I7-83" vertex="1" connectable="0">
          <mxGeometry x="40" y="-4" width="40" height="119.99999999999999" as="geometry" />
        </mxCell>
        <mxCell id="OpkzagluIzVOPS0O33I7-31" value="" style="endArrow=none;html=1;rounded=0;labelBackgroundColor=default;strokeColor=default;fontFamily=Helvetica;fontSize=11;fontColor=default;shape=connector;" parent="OpkzagluIzVOPS0O33I7-30" edge="1">
          <mxGeometry width="50" height="50" relative="1" as="geometry">
            <mxPoint as="sourcePoint" />
            <mxPoint as="targetPoint" />
            <Array as="points">
              <mxPoint x="30" />
              <mxPoint x="40" y="8.57142857142857" />
              <mxPoint x="40" y="111.42857142857142" />
              <mxPoint x="30" y="119.99999999999999" />
              <mxPoint x="20" y="119.99999999999999" />
              <mxPoint y="119.99999999999999" />
            </Array>
          </mxGeometry>
        </mxCell>
        <mxCell id="OpkzagluIzVOPS0O33I7-32" value="" style="endArrow=none;html=1;rounded=0;labelBackgroundColor=default;strokeColor=default;fontFamily=Helvetica;fontSize=11;fontColor=default;shape=connector;" parent="OpkzagluIzVOPS0O33I7-30" edge="1">
          <mxGeometry width="50" height="50" relative="1" as="geometry">
            <mxPoint as="sourcePoint" />
            <mxPoint as="targetPoint" />
          </mxGeometry>
        </mxCell>
        <mxCell id="OpkzagluIzVOPS0O33I7-33" value="" style="endArrow=none;html=1;rounded=0;labelBackgroundColor=default;strokeColor=default;fontFamily=Helvetica;fontSize=11;fontColor=default;shape=connector;" parent="OpkzagluIzVOPS0O33I7-30" edge="1">
          <mxGeometry width="50" height="50" relative="1" as="geometry">
            <mxPoint as="sourcePoint" />
            <mxPoint as="targetPoint" />
          </mxGeometry>
        </mxCell>
        <mxCell id="OpkzagluIzVOPS0O33I7-34" value="0" style="text;html=1;align=left;verticalAlign=middle;resizable=0;points=[];autosize=1;strokeColor=none;fillColor=none;fontSize=11;fontFamily=Helvetica;fontColor=default;connectable=0;allowArrows=0;editable=1;movable=1;rotatable=0;deletable=1;locked=0;container=0;" parent="OpkzagluIzVOPS0O33I7-30" vertex="1">
          <mxGeometry y="14" width="30" height="30" as="geometry" />
        </mxCell>
        <mxCell id="OpkzagluIzVOPS0O33I7-35" value="1" style="text;html=1;align=left;verticalAlign=middle;resizable=0;points=[];autosize=1;strokeColor=none;fillColor=none;fontSize=11;fontFamily=Helvetica;fontColor=default;connectable=1;allowArrows=0;editable=1;movable=1;rotatable=0;deletable=1;locked=0;container=0;" parent="OpkzagluIzVOPS0O33I7-30" vertex="1">
          <mxGeometry y="75" width="30" height="30" as="geometry" />
        </mxCell>
        <mxCell id="OpkzagluIzVOPS0O33I7-36" value="&lt;b&gt;&lt;i&gt;M&lt;br&gt;u&lt;br&gt;x&lt;/i&gt;&lt;/b&gt;" style="text;html=1;align=center;verticalAlign=middle;resizable=1;points=[];autosize=1;strokeColor=none;fillColor=none;fontSize=11;fontFamily=Helvetica;fontColor=default;connectable=0;allowArrows=0;rotatable=0;container=0;resizeWidth=1;resizeHeight=1;" parent="OpkzagluIzVOPS0O33I7-30" vertex="1">
          <mxGeometry x="5" y="34" width="30" height="50" as="geometry" />
        </mxCell>
        <mxCell id="OpkzagluIzVOPS0O33I7-61" value="" style="edgeStyle=orthogonalEdgeStyle;orthogonalLoop=1;jettySize=auto;html=1;rounded=0;entryX=0;entryY=0.75;entryDx=0;entryDy=0;entryPerimeter=0;exitX=1;exitY=0.69;exitDx=0;exitDy=0;exitPerimeter=0;strokeColor=#FF0000;" parent="OpkzagluIzVOPS0O33I7-83" source="OpkzagluIzVOPS0O33I7-76" target="OpkzagluIzVOPS0O33I7-30" edge="1">
          <mxGeometry width="100" relative="1" as="geometry">
            <mxPoint x="-70" y="150" as="sourcePoint" />
            <mxPoint x="50" y="40" as="targetPoint" />
            <Array as="points">
              <mxPoint x="-70" y="220" />
              <mxPoint x="-70" y="86" />
            </Array>
          </mxGeometry>
        </mxCell>
        <mxCell id="OpkzagluIzVOPS0O33I7-153" style="edgeStyle=orthogonalEdgeStyle;rounded=0;orthogonalLoop=1;jettySize=auto;html=1;exitX=1;exitY=0.47;exitDx=0;exitDy=0;exitPerimeter=0;entryX=0;entryY=0.25;entryDx=0;entryDy=0;entryPerimeter=0;strokeColor=#0000FF;" parent="OpkzagluIzVOPS0O33I7-5" source="OpkzagluIzVOPS0O33I7-76" target="OpkzagluIzVOPS0O33I7-30" edge="1">
          <mxGeometry relative="1" as="geometry">
            <mxPoint x="1030" y="294" as="sourcePoint" />
            <mxPoint x="1230" y="293" as="targetPoint" />
          </mxGeometry>
        </mxCell>
        <mxCell id="53aOUzcJgr9QoAV5sl4--75" style="edgeStyle=orthogonalEdgeStyle;rounded=0;orthogonalLoop=1;jettySize=auto;html=1;" edge="1" parent="OpkzagluIzVOPS0O33I7-5" source="OpkzagluIzVOPS0O33I7-73">
          <mxGeometry relative="1" as="geometry">
            <mxPoint x="1442" y="340" as="targetPoint" />
          </mxGeometry>
        </mxCell>
        <mxCell id="OpkzagluIzVOPS0O33I7-154" value="MEM" style="" parent="0" />
        <mxCell id="OpkzagluIzVOPS0O33I7-157" style="edgeStyle=orthogonalEdgeStyle;rounded=0;orthogonalLoop=1;jettySize=auto;html=1;exitX=1;exitY=0.5;exitDx=0;exitDy=0;exitPerimeter=0;entryX=0.5;entryY=0;entryDx=0;entryDy=0;entryPerimeter=0;strokeColor=#FF0000;" parent="OpkzagluIzVOPS0O33I7-154" source="OpkzagluIzVOPS0O33I7-172" target="MI3vTnZKfxx9PkZqP91Z-54" edge="1">
          <mxGeometry relative="1" as="geometry">
            <mxPoint x="1960" y="170.94" as="sourcePoint" />
            <mxPoint x="380" y="-155.06" as="targetPoint" />
            <Array as="points">
              <mxPoint x="2120" y="226" />
              <mxPoint x="2120" y="-305" />
              <mxPoint x="381" y="-305" />
              <mxPoint x="381" y="-205" />
            </Array>
          </mxGeometry>
        </mxCell>
        <mxCell id="OpkzagluIzVOPS0O33I7-159" value="&lt;b&gt;&lt;i&gt;Data&lt;br&gt;Memory&lt;br&gt;&lt;/i&gt;&lt;/b&gt;" style="whiteSpace=wrap;html=1;aspect=fixed;" parent="OpkzagluIzVOPS0O33I7-154" vertex="1">
          <mxGeometry x="1910" y="297" width="160" height="160" as="geometry" />
        </mxCell>
        <mxCell id="OpkzagluIzVOPS0O33I7-160" value="address" style="text;html=1;align=left;verticalAlign=middle;resizable=0;points=[];autosize=1;strokeColor=none;fillColor=none;fontSize=11;" parent="OpkzagluIzVOPS0O33I7-154" vertex="1">
          <mxGeometry x="1911" y="318" width="60" height="30" as="geometry" />
        </mxCell>
        <mxCell id="OpkzagluIzVOPS0O33I7-161" value="Write&lt;br&gt;Data" style="text;html=1;align=left;verticalAlign=middle;resizable=0;points=[];autosize=1;strokeColor=none;fillColor=none;fontSize=11;" parent="OpkzagluIzVOPS0O33I7-154" vertex="1">
          <mxGeometry x="1910" y="396" width="50" height="40" as="geometry" />
        </mxCell>
        <mxCell id="OpkzagluIzVOPS0O33I7-163" style="edgeStyle=orthogonalEdgeStyle;rounded=0;orthogonalLoop=1;jettySize=auto;html=1;exitX=1;exitY=0.61;exitDx=0;exitDy=0;exitPerimeter=0;entryX=0;entryY=0.75;entryDx=0;entryDy=0;" parent="OpkzagluIzVOPS0O33I7-154" target="OpkzagluIzVOPS0O33I7-159" edge="1">
          <mxGeometry relative="1" as="geometry">
            <mxPoint x="1710" y="416.79999999999995" as="sourcePoint" />
          </mxGeometry>
        </mxCell>
        <mxCell id="OpkzagluIzVOPS0O33I7-164" style="edgeStyle=orthogonalEdgeStyle;rounded=0;orthogonalLoop=1;jettySize=auto;html=1;exitX=1;exitY=0.47;exitDx=0;exitDy=0;exitPerimeter=0;entryX=0;entryY=0.25;entryDx=0;entryDy=0;strokeColor=#FF0000;" parent="OpkzagluIzVOPS0O33I7-154" target="OpkzagluIzVOPS0O33I7-159" edge="1">
          <mxGeometry relative="1" as="geometry">
            <mxPoint x="1710" y="293.5999999999999" as="sourcePoint" />
          </mxGeometry>
        </mxCell>
        <mxCell id="OpkzagluIzVOPS0O33I7-172" value="" style="verticalLabelPosition=bottom;shadow=0;dashed=0;align=center;html=1;verticalAlign=top;shape=mxgraph.electrical.logic_gates.logic_gate;operation=and;" parent="OpkzagluIzVOPS0O33I7-154" vertex="1">
          <mxGeometry x="1860" y="196" width="100" height="60" as="geometry" />
        </mxCell>
        <mxCell id="OpkzagluIzVOPS0O33I7-200" style="edgeStyle=orthogonalEdgeStyle;rounded=0;orthogonalLoop=1;jettySize=auto;html=1;exitX=1;exitY=0.24;exitDx=0;exitDy=0;exitPerimeter=0;strokeColor=#CC6600;" parent="OpkzagluIzVOPS0O33I7-154" source="OpkzagluIzVOPS0O33I7-165" target="MI3vTnZKfxx9PkZqP91Z-54" edge="1">
          <mxGeometry relative="1" as="geometry">
            <mxPoint x="500" y="-15.059999999999999" as="targetPoint" />
            <Array as="points">
              <mxPoint x="1830" y="91" />
              <mxPoint x="1830" y="-255" />
              <mxPoint x="520" y="-255" />
              <mxPoint x="520" y="25" />
              <mxPoint x="320" y="25" />
              <mxPoint x="320" y="-45" />
            </Array>
            <mxPoint x="1710" y="36.14000000000004" as="sourcePoint" />
          </mxGeometry>
        </mxCell>
        <mxCell id="53aOUzcJgr9QoAV5sl4--45" value="pc_branch" style="edgeLabel;html=1;align=center;verticalAlign=middle;resizable=0;points=[];labelBackgroundColor=none;" vertex="1" connectable="0" parent="OpkzagluIzVOPS0O33I7-200">
          <mxGeometry x="0.81" y="1" relative="1" as="geometry">
            <mxPoint y="6" as="offset" />
          </mxGeometry>
        </mxCell>
        <mxCell id="OpkzagluIzVOPS0O33I7-183" value="WB" style="" parent="0" />
        <mxCell id="OpkzagluIzVOPS0O33I7-184" value="" style="group;connectable=1;points=[[0,0.25,0,0,0],[0,0.75,0,0,0],[0.5,0,0,0,0],[0.5,1,0,0,0],[1,0.5,0,0,0]];" parent="OpkzagluIzVOPS0O33I7-183" vertex="1" connectable="0">
          <mxGeometry x="2590" y="307.0000000000001" width="40" height="119.99999999999999" as="geometry" />
        </mxCell>
        <mxCell id="OpkzagluIzVOPS0O33I7-185" value="" style="endArrow=none;html=1;rounded=0;labelBackgroundColor=default;strokeColor=default;fontFamily=Helvetica;fontSize=11;fontColor=default;shape=connector;" parent="OpkzagluIzVOPS0O33I7-184" edge="1">
          <mxGeometry width="50" height="50" relative="1" as="geometry">
            <mxPoint as="sourcePoint" />
            <mxPoint as="targetPoint" />
            <Array as="points">
              <mxPoint x="30" />
              <mxPoint x="40" y="8.57142857142857" />
              <mxPoint x="40" y="111.42857142857142" />
              <mxPoint x="30" y="119.99999999999999" />
              <mxPoint x="20" y="119.99999999999999" />
              <mxPoint y="119.99999999999999" />
            </Array>
          </mxGeometry>
        </mxCell>
        <mxCell id="OpkzagluIzVOPS0O33I7-186" value="" style="endArrow=none;html=1;rounded=0;labelBackgroundColor=default;strokeColor=default;fontFamily=Helvetica;fontSize=11;fontColor=default;shape=connector;" parent="OpkzagluIzVOPS0O33I7-184" edge="1">
          <mxGeometry width="50" height="50" relative="1" as="geometry">
            <mxPoint as="sourcePoint" />
            <mxPoint as="targetPoint" />
          </mxGeometry>
        </mxCell>
        <mxCell id="OpkzagluIzVOPS0O33I7-187" value="" style="endArrow=none;html=1;rounded=0;labelBackgroundColor=default;strokeColor=default;fontFamily=Helvetica;fontSize=11;fontColor=default;shape=connector;" parent="OpkzagluIzVOPS0O33I7-184" edge="1">
          <mxGeometry width="50" height="50" relative="1" as="geometry">
            <mxPoint as="sourcePoint" />
            <mxPoint as="targetPoint" />
          </mxGeometry>
        </mxCell>
        <mxCell id="OpkzagluIzVOPS0O33I7-188" value="0" style="text;html=1;align=left;verticalAlign=middle;resizable=0;points=[];autosize=1;strokeColor=none;fillColor=none;fontSize=11;fontFamily=Helvetica;fontColor=default;connectable=0;allowArrows=0;editable=1;movable=1;rotatable=0;deletable=1;locked=0;container=0;" parent="OpkzagluIzVOPS0O33I7-184" vertex="1">
          <mxGeometry y="14" width="30" height="30" as="geometry" />
        </mxCell>
        <mxCell id="OpkzagluIzVOPS0O33I7-189" value="1" style="text;html=1;align=left;verticalAlign=middle;resizable=0;points=[];autosize=1;strokeColor=none;fillColor=none;fontSize=11;fontFamily=Helvetica;fontColor=default;connectable=1;allowArrows=0;editable=1;movable=1;rotatable=0;deletable=1;locked=0;container=0;" parent="OpkzagluIzVOPS0O33I7-184" vertex="1">
          <mxGeometry y="75" width="30" height="30" as="geometry" />
        </mxCell>
        <mxCell id="OpkzagluIzVOPS0O33I7-190" value="M&lt;br&gt;u&lt;br&gt;x" style="text;html=1;align=center;verticalAlign=middle;resizable=1;points=[];autosize=1;strokeColor=none;fillColor=none;fontSize=11;fontFamily=Helvetica;fontColor=default;connectable=0;allowArrows=0;rotatable=0;container=0;resizeWidth=1;resizeHeight=1;" parent="OpkzagluIzVOPS0O33I7-184" vertex="1">
          <mxGeometry x="5" y="34" width="30" height="50" as="geometry" />
        </mxCell>
        <mxCell id="OpkzagluIzVOPS0O33I7-191" style="edgeStyle=orthogonalEdgeStyle;rounded=0;orthogonalLoop=1;jettySize=auto;html=1;exitX=1;exitY=0.53;exitDx=0;exitDy=0;exitPerimeter=0;entryX=0;entryY=0.25;entryDx=0;entryDy=0;entryPerimeter=0;" parent="OpkzagluIzVOPS0O33I7-183" target="OpkzagluIzVOPS0O33I7-184" edge="1">
          <mxGeometry relative="1" as="geometry">
            <mxPoint x="2350" y="337" as="sourcePoint" />
          </mxGeometry>
        </mxCell>
        <mxCell id="OpkzagluIzVOPS0O33I7-192" style="edgeStyle=orthogonalEdgeStyle;rounded=0;orthogonalLoop=1;jettySize=auto;html=1;exitX=1;exitY=0.69;exitDx=0;exitDy=0;exitPerimeter=0;entryX=0;entryY=0.75;entryDx=0;entryDy=0;entryPerimeter=0;" parent="OpkzagluIzVOPS0O33I7-183" target="OpkzagluIzVOPS0O33I7-184" edge="1">
          <mxGeometry relative="1" as="geometry">
            <mxPoint x="2350" y="478" as="sourcePoint" />
          </mxGeometry>
        </mxCell>
        <mxCell id="OpkzagluIzVOPS0O33I7-193" style="edgeStyle=orthogonalEdgeStyle;rounded=0;orthogonalLoop=1;jettySize=auto;html=1;exitX=1;exitY=0.04;exitDx=0;exitDy=0;exitPerimeter=0;entryX=0.5;entryY=0;entryDx=0;entryDy=0;entryPerimeter=0;" parent="OpkzagluIzVOPS0O33I7-183" source="OpkzagluIzVOPS0O33I7-166" target="OpkzagluIzVOPS0O33I7-184" edge="1">
          <mxGeometry relative="1" as="geometry" />
        </mxCell>
        <mxCell id="53aOUzcJgr9QoAV5sl4--38" value="Nombre de Variables" parent="0" />
        <mxCell id="53aOUzcJgr9QoAV5sl4--66" value="if_instruction[20-16]" style="edgeLabel;html=1;align=center;verticalAlign=middle;resizable=0;points=[];fontSize=10;fontColor=#190033;labelBackgroundColor=none;fontFamily=Helvetica;spacing=0;" vertex="1" connectable="0" parent="53aOUzcJgr9QoAV5sl4--38">
          <mxGeometry x="819.9966666666666" y="593.0000000000002" as="geometry" />
        </mxCell>
        <mxCell id="53aOUzcJgr9QoAV5sl4--67" value="if_instruction[15-11]" style="edgeLabel;html=1;align=center;verticalAlign=middle;resizable=0;points=[];fontSize=10;fontColor=#190033;labelBackgroundColor=none;fontFamily=Helvetica;spacing=0;" vertex="1" connectable="0" parent="53aOUzcJgr9QoAV5sl4--38">
          <mxGeometry x="819.9966666666666" y="660.0000000000002" as="geometry" />
        </mxCell>
        <mxCell id="53aOUzcJgr9QoAV5sl4--68" value="mux_instruction" style="edgeLabel;html=1;align=center;verticalAlign=middle;resizable=0;points=[];fontSize=10;fontColor=#190033;labelBackgroundColor=none;fontFamily=Helvetica;spacing=0;" vertex="1" connectable="0" parent="53aOUzcJgr9QoAV5sl4--38">
          <mxGeometry x="1379.9966666666664" y="629.0000000000002" as="geometry" />
        </mxCell>
        <mxCell id="53aOUzcJgr9QoAV5sl4--70" value="ID_instruction_20_16" style="edgeLabel;html=1;align=center;verticalAlign=middle;resizable=0;points=[];fontSize=10;fontColor=#190033;labelBackgroundColor=none;fontFamily=Helvetica;spacing=0;" vertex="1" connectable="0" parent="53aOUzcJgr9QoAV5sl4--38">
          <mxGeometry x="1099.9966666666664" y="593.0000000000002" as="geometry" />
        </mxCell>
        <mxCell id="53aOUzcJgr9QoAV5sl4--71" value="ID_instruction_15_11" style="edgeLabel;html=1;align=center;verticalAlign=middle;resizable=0;points=[];fontSize=10;fontColor=#190033;labelBackgroundColor=none;fontFamily=Helvetica;spacing=0;" vertex="1" connectable="0" parent="53aOUzcJgr9QoAV5sl4--38">
          <mxGeometry x="1099.9966666666664" y="680.0000000000002" as="geometry" />
        </mxCell>
        <mxCell id="53aOUzcJgr9QoAV5sl4--73" value="MEM(Branch, memWrite, MemRead)" style="edgeLabel;html=1;align=center;verticalAlign=middle;resizable=0;points=[];fontSize=9;labelBackgroundColor=none;fontColor=#190033;" vertex="1" connectable="0" parent="53aOUzcJgr9QoAV5sl4--38">
          <mxGeometry x="879.9972169142582" y="-40.00281664963958" as="geometry" />
        </mxCell>
        <mxCell id="53aOUzcJgr9QoAV5sl4--74" value="EX(RegDst, AluOp, AluSrc)" style="edgeLabel;html=1;align=center;verticalAlign=middle;resizable=0;points=[];fontSize=9;labelBackgroundColor=none;fontColor=#190033;" vertex="1" connectable="0" parent="53aOUzcJgr9QoAV5sl4--38">
          <mxGeometry x="859.9972169142582" y="9.997183350360423" as="geometry" />
        </mxCell>
        <mxCell id="53aOUzcJgr9QoAV5sl4--76" value="pc_branch" style="edgeLabel;html=1;align=center;verticalAlign=middle;resizable=0;points=[];labelBackgroundColor=none;" vertex="1" connectable="0" parent="53aOUzcJgr9QoAV5sl4--38">
          <mxGeometry x="1287.9999999999998" y="-265" as="geometry" />
        </mxCell>
        <mxCell id="53aOUzcJgr9QoAV5sl4--77" value="pc_branch" style="edgeLabel;html=1;align=center;verticalAlign=middle;resizable=0;points=[];labelBackgroundColor=none;" vertex="1" connectable="0" parent="53aOUzcJgr9QoAV5sl4--38">
          <mxGeometry x="1839.9999999999998" y="-160" as="geometry" />
        </mxCell>
        <mxCell id="53aOUzcJgr9QoAV5sl4--85" style="edgeStyle=orthogonalEdgeStyle;rounded=0;orthogonalLoop=1;jettySize=auto;html=1;exitX=1;exitY=0.16;exitDx=0;exitDy=0;exitPerimeter=0;strokeColor=#0000CC;" edge="1" parent="53aOUzcJgr9QoAV5sl4--38" source="OpkzagluIzVOPS0O33I7-76" target="OpkzagluIzVOPS0O33I7-30">
          <mxGeometry relative="1" as="geometry">
            <Array as="points">
              <mxPoint x="1250" y="21" />
            </Array>
          </mxGeometry>
        </mxCell>
        <mxCell id="53aOUzcJgr9QoAV5sl4--86" value="&amp;nbsp;AluSrc" style="edgeLabel;html=1;align=center;verticalAlign=middle;resizable=0;points=[];fontSize=10;labelBackgroundColor=none;fontColor=#190033;" vertex="1" connectable="0" parent="53aOUzcJgr9QoAV5sl4--38">
          <mxGeometry x="1265.9972169142582" y="179.99718335036042" as="geometry" />
        </mxCell>
        <mxCell id="53aOUzcJgr9QoAV5sl4--89" style="edgeStyle=orthogonalEdgeStyle;rounded=0;orthogonalLoop=1;jettySize=auto;html=1;exitX=1;exitY=0.16;exitDx=0;exitDy=0;exitPerimeter=0;entryX=1;entryY=0.5;entryDx=0;entryDy=0;entryPerimeter=0;strokeColor=#FF0000;" edge="1" parent="53aOUzcJgr9QoAV5sl4--38" source="OpkzagluIzVOPS0O33I7-76" target="OpkzagluIzVOPS0O33I7-73">
          <mxGeometry relative="1" as="geometry">
            <Array as="points">
              <mxPoint x="1530" y="21" />
              <mxPoint x="1530" y="560" />
              <mxPoint x="1261" y="560" />
            </Array>
          </mxGeometry>
        </mxCell>
        <mxCell id="53aOUzcJgr9QoAV5sl4--90" value="AluOp" style="text;html=1;align=center;verticalAlign=middle;resizable=0;points=[];autosize=1;strokeColor=none;fillColor=none;" vertex="1" parent="53aOUzcJgr9QoAV5sl4--38">
          <mxGeometry x="1310" y="538" width="60" height="30" as="geometry" />
        </mxCell>
        <mxCell id="53aOUzcJgr9QoAV5sl4--91" style="edgeStyle=orthogonalEdgeStyle;rounded=0;orthogonalLoop=1;jettySize=auto;html=1;exitX=1;exitY=0.16;exitDx=0;exitDy=0;exitPerimeter=0;entryX=0.5;entryY=1;entryDx=0;entryDy=0;entryPerimeter=0;strokeColor=#00FF00;" edge="1" parent="53aOUzcJgr9QoAV5sl4--38" source="OpkzagluIzVOPS0O33I7-76" target="OpkzagluIzVOPS0O33I7-93">
          <mxGeometry relative="1" as="geometry">
            <Array as="points">
              <mxPoint x="1560" y="21" />
              <mxPoint x="1560" y="720" />
              <mxPoint x="1270" y="720" />
            </Array>
          </mxGeometry>
        </mxCell>
        <mxCell id="53aOUzcJgr9QoAV5sl4--93" value="RegDst" style="text;html=1;align=center;verticalAlign=middle;resizable=0;points=[];autosize=1;strokeColor=none;fillColor=none;" vertex="1" parent="53aOUzcJgr9QoAV5sl4--38">
          <mxGeometry x="1370" y="696" width="60" height="30" as="geometry" />
        </mxCell>
      </root>
    </mxGraphModel>
  </diagram>
</mxfile>
